<?xml version="1.0" encoding="UTF-8" standalone="no"?>
<!-- Created with Inkscape (http://www.inkscape.org/) -->

<svg
   xmlns:dc="http://purl.org/dc/elements/1.1/"
   xmlns:cc="http://creativecommons.org/ns#"
   xmlns:rdf="http://www.w3.org/1999/02/22-rdf-syntax-ns#"
   xmlns:svg="http://www.w3.org/2000/svg"
   xmlns="http://www.w3.org/2000/svg"
   xmlns:sodipodi="http://sodipodi.sourceforge.net/DTD/sodipodi-0.dtd"
   xmlns:inkscape="http://www.inkscape.org/namespaces/inkscape"
   width="130.56844mm"
   height="65.789497mm"
   viewBox="0 0 462.64406 233.11239"
   id="svg2"
   version="1.1"
   inkscape:version="0.91 r13725"
   sodipodi:docname="many_to_one.svg">
  <defs
     id="defs4">
    <marker
       inkscape:stockid="Arrow1Mend"
       orient="auto"
       refY="0"
       refX="0"
       id="Arrow1Mend"
       style="overflow:visible"
       inkscape:isstock="true">
      <path
         id="path4374"
         d="M 0,0 5,-5 -12.5,0 5,5 0,0 Z"
         style="fill:#000000;fill-opacity:1;fill-rule:evenodd;stroke:#000000;stroke-width:1pt;stroke-opacity:1"
         transform="matrix(-0.4,0,0,-0.4,-4,0)"
         inkscape:connector-curvature="0" />
    </marker>
  </defs>
  <sodipodi:namedview
     id="base"
     pagecolor="#ffffff"
     bordercolor="#666666"
     borderopacity="1.0"
     inkscape:pageopacity="0.0"
     inkscape:pageshadow="2"
     inkscape:zoom="6.4066532"
     inkscape:cx="186.91506"
     inkscape:cy="132.19134"
     inkscape:document-units="px"
     inkscape:current-layer="layer1"
     showgrid="true"
     inkscape:window-width="3710"
     inkscape:window-height="2112"
     inkscape:window-x="1810"
     inkscape:window-y="48"
     inkscape:window-maximized="1"
     fit-margin-top="0"
     fit-margin-left="0"
     fit-margin-right="0"
     fit-margin-bottom="0">
    <inkscape:grid
       type="xygrid"
       id="grid4136"
       originx="-28.669657"
       originy="-577.16444" />
  </sodipodi:namedview>
  <metadata
     id="metadata7">
    <rdf:RDF>
      <cc:Work
         rdf:about="">
        <dc:format>image/svg+xml</dc:format>
        <dc:type
           rdf:resource="http://purl.org/dc/dcmitype/StillImage" />
        <dc:title></dc:title>
      </cc:Work>
    </rdf:RDF>
  </metadata>
  <g
     inkscape:label="Layer 1"
     inkscape:groupmode="layer"
     id="layer1"
     transform="translate(-28.669658,-242.08536)">
    <path
       style="fill:none;fill-rule:evenodd;stroke:#5f5f5f;stroke-width:20;stroke-linecap:butt;stroke-linejoin:miter;stroke-miterlimit:4;stroke-dasharray:none;stroke-opacity:1"
       d="m 260,372.3622 0,-100"
       id="path5644"
       inkscape:connector-curvature="0" />
    <path
       style="fill:none;fill-rule:evenodd;stroke:#000000;stroke-width:20;stroke-linecap:butt;stroke-linejoin:round;stroke-miterlimit:4;stroke-dasharray:none;stroke-opacity:1"
       d="m 120,372.3622 280,0"
       id="path4138"
       inkscape:connector-curvature="0" />
    <path
       style="fill:none;fill-rule:evenodd;stroke:#000000;stroke-width:20;stroke-linecap:butt;stroke-linejoin:round;stroke-miterlimit:4;stroke-dasharray:none;stroke-opacity:1"
       d="m 480,452.3622 -80,-80 80,-80"
       id="path4140"
       inkscape:connector-curvature="0" />
    <path
       style="fill:none;fill-rule:evenodd;stroke:#000000;stroke-width:20;stroke-linecap:butt;stroke-linejoin:round;stroke-miterlimit:4;stroke-dasharray:none;stroke-opacity:1"
       d="m 39.983366,452.3622 80.000004,-80 -80.000004,-80"
       id="path4142"
       inkscape:connector-curvature="0" />
    <path
       inkscape:connector-curvature="0"
       id="path5646"
       d="m 260,372.3622 0,-100"
       style="fill:none;fill-rule:evenodd;stroke:#c4c4c4;stroke-width:16;stroke-linecap:butt;stroke-linejoin:miter;stroke-miterlimit:4;stroke-dasharray:none;stroke-opacity:1" />
    <path
       inkscape:connector-curvature="0"
       id="path4144"
       d="m 120,372.3622 280,0"
       style="fill:none;fill-rule:evenodd;stroke:#ffffff;stroke-width:16;stroke-linecap:square;stroke-linejoin:round;stroke-miterlimit:4;stroke-dasharray:none;stroke-opacity:1" />
    <path
       inkscape:connector-curvature="0"
       id="path4146"
       d="m 480,452.3622 -80,-80 80,-80"
       style="fill:none;fill-rule:evenodd;stroke:#ffffff;stroke-width:16;stroke-linecap:square;stroke-linejoin:round;stroke-miterlimit:4;stroke-dasharray:none;stroke-opacity:1" />
    <path
       inkscape:connector-curvature="0"
       id="path4148"
       d="m 39.983366,452.3622 80.000004,-80 -80.000004,-80"
       style="fill:none;fill-rule:evenodd;stroke:#ffffff;stroke-width:16;stroke-linecap:square;stroke-linejoin:round;stroke-miterlimit:4;stroke-dasharray:none;stroke-opacity:1" />
    <path
       sodipodi:nodetypes="cccsssscccssssscccccccsssssccssssssccc"
       inkscape:connector-curvature="0"
       id="path4166"
       d="m 124.94921,358.22681 2.3463,0 c 0,0 0.0165,-4.72905 2.80915,-9.4268 2.79295,-4.69776 8.14023,-9.31891 19.48066,-9.31891 5.66075,0 9.07906,1.21257 12.35471,2.49351 3.27566,1.28097 6.46117,2.67853 11.10824,2.67853 3.22798,0 5.78773,-1.06728 7.63464,-2.61686 1.84689,-1.54956 3.02778,-3.54574 3.81729,-5.49962 0.41199,-1.01955 0.18936,-1.0793 0.41703,-2.02333 0.23064,1.00254 0.007,1.0746 0.43993,2.16594 0.78829,1.98929 1.96763,4.02127 3.81274,5.59981 1.84507,1.57855 4.40997,2.66695 7.64378,2.66695 4.64708,0 7.82799,-1.39756 11.10366,-2.67851 3.27566,-1.28094 6.69852,-2.49351 12.3593,-2.49351 11.34333,0 16.64837,4.58713 19.40277,9.24568 2.75259,4.65548 2.73583,9.33589 2.73581,9.34201 l 0,0.004 2.3463,0.0197 0,-0.004 0.15134,-11.69681 0,-0.004 c 0,0 0.0165,-5.13712 -3.05662,-10.30553 -3.07275,-5.16839 -9.45694,-10.41342 -21.57949,-10.41342 -6.07073,0 -10.01223,1.37361 -13.34912,2.67851 -3.33693,1.3049 -6.01678,2.49351 -10.11382,2.49351 -2.63196,0 -4.48841,-0.80873 -5.97115,-2.07728 -1.48275,-1.26855 -2.54225,-3.03374 -3.25824,-4.84059 -1.43195,-3.61366 -1.48016,-7.28786 -1.48016,-7.28786 l -2.34631,0 c 0,0 -0.0506,3.59973 -1.48017,7.13755 -0.71479,1.76893 -1.77272,3.49403 -3.25366,4.73653 -1.48094,1.24253 -3.33796,2.03877 -5.97573,2.03877 -4.09705,0 -6.78148,-1.18864 -10.11841,-2.49354 -3.33689,-1.30488 -7.27381,-2.6785 -13.34455,-2.6785 -12.12251,0 -18.50671,5.24118 -21.57948,10.40957 -3.07278,5.16841 -3.05663,10.30937 -3.05663,10.30937 l 0,11.8394 z"
       style="color:#000000;font-style:normal;font-variant:normal;font-weight:normal;font-stretch:normal;font-size:medium;line-height:normal;font-family:sans-serif;text-indent:0;text-align:start;text-decoration:none;text-decoration-line:none;text-decoration-style:solid;text-decoration-color:#000000;letter-spacing:normal;word-spacing:normal;text-transform:none;direction:ltr;block-progression:tb;writing-mode:lr-tb;baseline-shift:baseline;text-anchor:start;white-space:normal;clip-rule:nonzero;display:inline;overflow:visible;visibility:visible;opacity:1;isolation:auto;mix-blend-mode:normal;color-interpolation:sRGB;color-interpolation-filters:linearRGB;solid-color:#000000;solid-opacity:1;fill:#3251ab;fill-opacity:1;fill-rule:evenodd;stroke:none;stroke-width:1px;stroke-linecap:butt;stroke-linejoin:miter;stroke-miterlimit:4;stroke-dasharray:none;stroke-dashoffset:0;stroke-opacity:1;color-rendering:auto;image-rendering:auto;shape-rendering:auto;text-rendering:auto;enable-background:accumulate" />
    <path
       style="color:#000000;font-style:normal;font-variant:normal;font-weight:normal;font-stretch:normal;font-size:medium;line-height:normal;font-family:sans-serif;text-indent:0;text-align:start;text-decoration:none;text-decoration-line:none;text-decoration-style:solid;text-decoration-color:#000000;letter-spacing:normal;word-spacing:normal;text-transform:none;direction:ltr;block-progression:tb;writing-mode:lr-tb;baseline-shift:baseline;text-anchor:start;white-space:normal;clip-rule:nonzero;display:inline;overflow:visible;visibility:visible;opacity:1;isolation:auto;mix-blend-mode:normal;color-interpolation:sRGB;color-interpolation-filters:linearRGB;solid-color:#000000;solid-opacity:1;fill:#b71d47;fill-opacity:1;fill-rule:evenodd;stroke:none;stroke-width:1px;stroke-linecap:butt;stroke-linejoin:miter;stroke-miterlimit:4;stroke-dasharray:none;stroke-dashoffset:0;stroke-opacity:1;color-rendering:auto;image-rendering:auto;shape-rendering:auto;text-rendering:auto;enable-background:accumulate"
       d="m 124.79312,387.63818 5.29227,0 c 0,0 0.037,4.72905 6.33628,9.4268 6.29976,4.69776 18.361,9.31891 43.9403,9.31891 12.76834,0 20.4786,-1.21257 27.86714,-2.49351 7.38854,-1.28097 14.57369,-2.67853 25.05557,-2.67853 7.281,0 13.05471,1.06728 17.22057,2.61686 4.16586,1.54956 6.82946,3.54574 8.61026,5.49962 0.92927,1.01955 0.42709,1.0793 0.94065,2.02333 0.52023,-1.00254 0.0159,-1.0746 0.9923,-2.16594 1.77804,-1.98929 4.43815,-4.02127 8.59994,-5.59981 4.16174,-1.57855 9.94709,-2.66695 17.24121,-2.66695 10.48188,0 17.65671,1.39756 25.04525,2.67851 7.38854,1.28094 15.10912,2.49351 27.87746,2.49351 25.58586,0 37.55184,-4.58713 43.7646,-9.24568 6.20873,-4.65548 6.17094,-9.33589 6.17089,-9.34201 l 0,-0.004 5.29227,-0.0197 0,0.004 0.34135,11.69681 0,0.004 c 0,0 0.0371,5.13712 -6.89445,10.30553 -6.93086,5.16839 -21.33097,10.41342 -48.67439,10.41342 -13.69307,0 -22.58345,-1.37361 -30.11011,-2.67851 -7.52672,-1.3049 -13.57134,-2.49351 -22.8126,-2.49351 -5.93661,0 -10.12396,0.80873 -13.46841,2.07728 -3.3445,1.26855 -5.73428,3.03374 -7.34927,4.84059 -3.22987,3.61366 -3.33863,7.28786 -3.33863,7.28786 l -5.29227,0 c 0,0 -0.11431,-3.59973 -3.33868,-7.13755 -1.61224,-1.76893 -3.99852,-3.49403 -7.3389,-4.73653 -3.34038,-1.24253 -7.52905,-2.03877 -13.47878,-2.03877 -9.24126,0 -15.2962,1.18864 -22.82292,2.49354 -7.52667,1.30488 -16.40673,2.6785 -30.09979,2.6785 -27.34336,0 -41.74348,-5.24118 -48.67439,-10.40957 -6.93092,-5.16841 -6.89446,-10.30937 -6.89446,-10.30937 l 0,-11.8394 z"
       id="path4168"
       inkscape:connector-curvature="0"
       sodipodi:nodetypes="cccsssscccssssscccccccsssssccssssssccc" />
    <text
       xml:space="preserve"
       style="font-style:normal;font-variant:normal;font-weight:bold;font-stretch:normal;font-size:62.5px;line-height:125%;font-family:'Clear Sans';-inkscape-font-specification:'Clear Sans, Bold';text-align:start;letter-spacing:0px;word-spacing:0px;writing-mode:lr-tb;text-anchor:start;fill:#3251ab;fill-opacity:1;stroke:none;stroke-width:1px;stroke-linecap:butt;stroke-linejoin:miter;stroke-opacity:1"
       x="316.43912"
       y="312.05005"
       id="text4276"
       sodipodi:linespacing="125%"><tspan
         sodipodi:role="line"
         id="tspan4278"
         x="316.43912"
         y="312.05005">2</tspan></text>
    <text
       xml:space="preserve"
       style="font-style:normal;font-variant:normal;font-weight:bold;font-stretch:normal;font-size:62.5px;line-height:125%;font-family:'Clear Sans';-inkscape-font-specification:'Clear Sans, Bold';text-align:start;letter-spacing:0px;word-spacing:0px;writing-mode:lr-tb;text-anchor:start;fill:#b71d47;fill-opacity:1;stroke:none;stroke-width:1px;stroke-linecap:butt;stroke-linejoin:miter;stroke-opacity:1"
       x="239.68263"
       y="475.19775"
       id="text4280"
       sodipodi:linespacing="125%"><tspan
         sodipodi:role="line"
         id="tspan4282"
         x="239.68263"
         y="475.19775">A</tspan></text>
    <text
       sodipodi:linespacing="125%"
       id="text5613"
       y="312.05005"
       x="164.43912"
       style="font-style:normal;font-variant:normal;font-weight:bold;font-stretch:normal;font-size:62.5px;line-height:125%;font-family:'Clear Sans';-inkscape-font-specification:'Clear Sans, Bold';text-align:start;letter-spacing:0px;word-spacing:0px;writing-mode:lr-tb;text-anchor:start;fill:#3251ab;fill-opacity:1;stroke:none;stroke-width:1px;stroke-linecap:butt;stroke-linejoin:miter;stroke-opacity:1"
       xml:space="preserve"><tspan
         y="312.05005"
         x="164.43912"
         id="tspan5615"
         sodipodi:role="line">1</tspan></text>
    <path
       style="color:#000000;font-style:normal;font-variant:normal;font-weight:normal;font-stretch:normal;font-size:medium;line-height:normal;font-family:sans-serif;text-indent:0;text-align:start;text-decoration:none;text-decoration-line:none;text-decoration-style:solid;text-decoration-color:#000000;letter-spacing:normal;word-spacing:normal;text-transform:none;direction:ltr;block-progression:tb;writing-mode:lr-tb;baseline-shift:baseline;text-anchor:start;white-space:normal;clip-rule:nonzero;display:inline;overflow:visible;visibility:visible;opacity:1;isolation:auto;mix-blend-mode:normal;color-interpolation:sRGB;color-interpolation-filters:linearRGB;solid-color:#000000;solid-opacity:1;fill:#3251ab;fill-opacity:1;fill-rule:evenodd;stroke:none;stroke-width:1px;stroke-linecap:butt;stroke-linejoin:miter;stroke-miterlimit:4;stroke-dasharray:none;stroke-dashoffset:0;stroke-opacity:1;color-rendering:auto;image-rendering:auto;shape-rendering:auto;text-rendering:auto;enable-background:accumulate"
       d="m 274.94921,358.22681 2.3463,0 c 0,0 0.0165,-4.72905 2.80915,-9.4268 2.79295,-4.69776 8.14023,-9.31891 19.48066,-9.31891 5.66075,0 9.07906,1.21257 12.35471,2.49351 3.27566,1.28097 6.46117,2.67853 11.10824,2.67853 3.22798,0 5.78773,-1.06728 7.63464,-2.61686 1.84689,-1.54956 3.02778,-3.54574 3.81729,-5.49962 0.41199,-1.01955 0.18936,-1.0793 0.41703,-2.02333 0.23064,1.00254 0.007,1.0746 0.43993,2.16594 0.78829,1.98929 1.96763,4.02127 3.81274,5.59981 1.84507,1.57855 4.40997,2.66695 7.64378,2.66695 4.64708,0 7.82799,-1.39756 11.10366,-2.67851 3.27566,-1.28094 6.69852,-2.49351 12.3593,-2.49351 11.34333,0 16.64837,4.58713 19.40277,9.24568 2.75259,4.65548 2.73583,9.33589 2.73581,9.34201 l 0,0.004 2.3463,0.0197 0,-0.004 0.15134,-11.69681 0,-0.004 c 0,0 0.0165,-5.13712 -3.05662,-10.30553 -3.07275,-5.16839 -9.45694,-10.41342 -21.57949,-10.41342 -6.07073,0 -10.01223,1.37361 -13.34912,2.67851 -3.33693,1.3049 -6.01678,2.49351 -10.11382,2.49351 -2.63196,0 -4.48841,-0.80873 -5.97115,-2.07728 -1.48275,-1.26855 -2.54225,-3.03374 -3.25824,-4.84059 -1.43195,-3.61366 -1.48016,-7.28786 -1.48016,-7.28786 l -2.34631,0 c 0,0 -0.0506,3.59973 -1.48017,7.13755 -0.71479,1.76893 -1.77272,3.49403 -3.25366,4.73653 -1.48094,1.24253 -3.33796,2.03877 -5.97573,2.03877 -4.09705,0 -6.78148,-1.18864 -10.11841,-2.49354 -3.33689,-1.30488 -7.27381,-2.6785 -13.34455,-2.6785 -12.12251,0 -18.50671,5.24118 -21.57948,10.40957 -3.07278,5.16841 -3.05663,10.30937 -3.05663,10.30937 l 0,11.8394 z"
       id="path5642"
       inkscape:connector-curvature="0"
       sodipodi:nodetypes="cccsssscccssssscccccccsssssccssssssccc" />
    <text
       xml:space="preserve"
       style="font-style:normal;font-variant:normal;font-weight:bold;font-stretch:normal;font-size:62.5px;line-height:125%;font-family:'Clear Sans';-inkscape-font-specification:'Clear Sans, Bold';text-align:start;letter-spacing:0px;word-spacing:0px;writing-mode:lr-tb;text-anchor:start;fill:#000000;fill-opacity:1;stroke:none;stroke-width:1px;stroke-linecap:butt;stroke-linejoin:miter;stroke-opacity:1"
       x="278.59552"
       y="260.64005"
       id="text5648"
       sodipodi:linespacing="125%"><tspan
         sodipodi:role="line"
         id="tspan5650"
         x="278.59552"
         y="260.64005"
         style="font-size:25px">New/old road</tspan></text>
    <path
       style="fill:none;fill-rule:evenodd;stroke:#000000;stroke-width:2;stroke-linecap:butt;stroke-linejoin:miter;stroke-miterlimit:4;stroke-dasharray:none;stroke-opacity:1;marker-end:url(#Arrow1Mend)"
       d="m 300,267.3622 c 0,10 0,30 -30,40"
       id="path5652"
       inkscape:connector-curvature="0"
       sodipodi:nodetypes="cc" />
  </g>
</svg>
