<?xml version="1.0" encoding="UTF-8" standalone="no"?>
<!-- Created with Inkscape (http://www.inkscape.org/) -->

<svg
   xmlns:dc="http://purl.org/dc/elements/1.1/"
   xmlns:cc="http://creativecommons.org/ns#"
   xmlns:rdf="http://www.w3.org/1999/02/22-rdf-syntax-ns#"
   xmlns:svg="http://www.w3.org/2000/svg"
   xmlns="http://www.w3.org/2000/svg"
   xmlns:sodipodi="http://sodipodi.sourceforge.net/DTD/sodipodi-0.dtd"
   xmlns:inkscape="http://www.inkscape.org/namespaces/inkscape"
   width="130.56844mm"
   height="58.213707mm"
   viewBox="0 0 462.64406 206.26904"
   id="svg2"
   version="1.1"
   inkscape:version="0.91 r13725"
   sodipodi:docname="one_to_many.svg">
  <defs
     id="defs4">
    <marker
       inkscape:stockid="Arrow1Mend"
       orient="auto"
       refY="0"
       refX="0"
       id="Arrow1Mend"
       style="overflow:visible"
       inkscape:isstock="true">
      <path
         id="path4374"
         d="M 0,0 5,-5 -12.5,0 5,5 0,0 Z"
         style="fill:#000000;fill-opacity:1;fill-rule:evenodd;stroke:#000000;stroke-width:1pt;stroke-opacity:1"
         transform="matrix(-0.4,0,0,-0.4,-4,0)"
         inkscape:connector-curvature="0" />
    </marker>
    <marker
       inkscape:stockid="Arrow1Lend"
       orient="auto"
       refY="0"
       refX="0"
       id="Arrow1Lend"
       style="overflow:visible"
       inkscape:isstock="true">
      <path
         id="path4368"
         d="M 0,0 5,-5 -12.5,0 5,5 0,0 Z"
         style="fill:#000000;fill-opacity:1;fill-rule:evenodd;stroke:#000000;stroke-width:1pt;stroke-opacity:1"
         transform="matrix(-0.8,0,0,-0.8,-10,0)"
         inkscape:connector-curvature="0" />
    </marker>
  </defs>
  <sodipodi:namedview
     id="base"
     pagecolor="#ffffff"
     bordercolor="#666666"
     borderopacity="1.0"
     inkscape:pageopacity="0.0"
     inkscape:pageshadow="2"
     inkscape:zoom="6.4066532"
     inkscape:cx="203.64171"
     inkscape:cy="114.50514"
     inkscape:document-units="px"
     inkscape:current-layer="layer1"
     showgrid="true"
     inkscape:window-width="3710"
     inkscape:window-height="2112"
     inkscape:window-x="1810"
     inkscape:window-y="48"
     inkscape:window-maximized="1"
     fit-margin-top="0"
     fit-margin-left="0"
     fit-margin-right="0"
     fit-margin-bottom="0">
    <inkscape:grid
       type="xygrid"
       id="grid4136"
       originx="-28.669657"
       originy="-576.27943" />
  </sodipodi:namedview>
  <metadata
     id="metadata7">
    <rdf:RDF>
      <cc:Work
         rdf:about="">
        <dc:format>image/svg+xml</dc:format>
        <dc:type
           rdf:resource="http://purl.org/dc/dcmitype/StillImage" />
        <dc:title></dc:title>
      </cc:Work>
    </rdf:RDF>
  </metadata>
  <g
     inkscape:label="Layer 1"
     inkscape:groupmode="layer"
     id="layer1"
     transform="translate(-28.669658,-269.81372)">
    <path
       style="fill:none;fill-rule:evenodd;stroke:#000000;stroke-width:5;stroke-linecap:butt;stroke-linejoin:miter;stroke-miterlimit:4;stroke-dasharray:none;stroke-opacity:1"
       d="m 205,392.3622 10,-10 90,0 10,10"
       id="path4351"
       inkscape:connector-curvature="0" />
    <path
       style="fill:none;fill-rule:evenodd;stroke:#000000;stroke-width:20;stroke-linecap:butt;stroke-linejoin:round;stroke-miterlimit:4;stroke-dasharray:none;stroke-opacity:1"
       d="m 120,372.3622 280,0"
       id="path4138"
       inkscape:connector-curvature="0" />
    <path
       style="fill:none;fill-rule:evenodd;stroke:#000000;stroke-width:20;stroke-linecap:butt;stroke-linejoin:round;stroke-miterlimit:4;stroke-dasharray:none;stroke-opacity:1"
       d="m 480,452.3622 -80,-80 80,-80"
       id="path4140"
       inkscape:connector-curvature="0" />
    <path
       style="fill:none;fill-rule:evenodd;stroke:#000000;stroke-width:20;stroke-linecap:butt;stroke-linejoin:round;stroke-miterlimit:4;stroke-dasharray:none;stroke-opacity:1"
       d="m 39.983366,452.3622 80.000004,-80 -80.000004,-80"
       id="path4142"
       inkscape:connector-curvature="0" />
    <path
       style="fill:none;fill-rule:evenodd;stroke:#000000;stroke-width:5;stroke-linecap:butt;stroke-linejoin:miter;stroke-miterlimit:4;stroke-dasharray:none;stroke-opacity:1"
       d="m 205,352.3622 10,10 90,0 10,-10"
       id="path4353"
       inkscape:connector-curvature="0" />
    <path
       inkscape:connector-curvature="0"
       id="path4144"
       d="m 120,372.3622 280,0"
       style="fill:none;fill-rule:evenodd;stroke:#ffffff;stroke-width:16;stroke-linecap:square;stroke-linejoin:round;stroke-miterlimit:4;stroke-dasharray:none;stroke-opacity:1" />
    <path
       inkscape:connector-curvature="0"
       id="path4146"
       d="m 480,452.3622 -80,-80 80,-80"
       style="fill:none;fill-rule:evenodd;stroke:#ffffff;stroke-width:16;stroke-linecap:square;stroke-linejoin:round;stroke-miterlimit:4;stroke-dasharray:none;stroke-opacity:1" />
    <path
       inkscape:connector-curvature="0"
       id="path4148"
       d="m 39.983366,452.3622 80.000004,-80 -80.000004,-80"
       style="fill:none;fill-rule:evenodd;stroke:#ffffff;stroke-width:16;stroke-linecap:square;stroke-linejoin:round;stroke-miterlimit:4;stroke-dasharray:none;stroke-opacity:1" />
    <path
       sodipodi:nodetypes="cccsssscccssssscccccccsssssccssssssccc"
       inkscape:connector-curvature="0"
       id="path4166"
       d="m 124.94921,358.22681 5.29227,0 c 0,0 0.037,-4.72905 6.33628,-9.4268 6.29976,-4.69776 18.361,-9.31891 43.9403,-9.31891 12.76834,0 20.4786,1.21257 27.86714,2.49351 7.38854,1.28097 14.57369,2.67853 25.05557,2.67853 7.281,0 13.05471,-1.06728 17.22057,-2.61686 4.16586,-1.54956 6.82946,-3.54574 8.61026,-5.49962 0.92927,-1.01955 0.42709,-1.0793 0.94065,-2.02333 0.52023,1.00254 0.0159,1.0746 0.9923,2.16594 1.77804,1.98929 4.43815,4.02127 8.59994,5.59981 4.16174,1.57855 9.94709,2.66695 17.24121,2.66695 10.48188,0 17.65671,-1.39756 25.04525,-2.67851 7.38854,-1.28094 15.10912,-2.49351 27.87746,-2.49351 25.58586,0 37.55184,4.58713 43.7646,9.24568 6.20873,4.65548 6.17094,9.33589 6.17089,9.34201 l 0,0.004 5.29227,0.0197 0,-0.004 0.34135,-11.69681 0,-0.004 c 0,0 0.0371,-5.13712 -6.89445,-10.30553 -6.93086,-5.16839 -21.33097,-10.41342 -48.67439,-10.41342 -13.69307,0 -22.58345,1.37361 -30.11011,2.67851 -7.52672,1.3049 -13.57134,2.49351 -22.8126,2.49351 -5.93661,0 -10.12396,-0.80873 -13.46841,-2.07728 -3.3445,-1.26855 -5.73428,-3.03374 -7.34927,-4.84059 -3.22987,-3.61366 -3.33863,-7.28786 -3.33863,-7.28786 l -5.29227,0 c 0,0 -0.11431,3.59973 -3.33868,7.13755 -1.61224,1.76893 -3.99852,3.49403 -7.3389,4.73653 -3.34038,1.24253 -7.52905,2.03877 -13.47878,2.03877 -9.24126,0 -15.2962,-1.18864 -22.82292,-2.49354 -7.52667,-1.30488 -16.40673,-2.6785 -30.09979,-2.6785 -27.34336,0 -41.74348,5.24118 -48.67439,10.40957 -6.93092,5.16841 -6.89446,10.30937 -6.89446,10.30937 l 0,11.8394 z"
       style="color:#000000;font-style:normal;font-variant:normal;font-weight:normal;font-stretch:normal;font-size:medium;line-height:normal;font-family:sans-serif;text-indent:0;text-align:start;text-decoration:none;text-decoration-line:none;text-decoration-style:solid;text-decoration-color:#000000;letter-spacing:normal;word-spacing:normal;text-transform:none;direction:ltr;block-progression:tb;writing-mode:lr-tb;baseline-shift:baseline;text-anchor:start;white-space:normal;clip-rule:nonzero;display:inline;overflow:visible;visibility:visible;opacity:1;isolation:auto;mix-blend-mode:normal;color-interpolation:sRGB;color-interpolation-filters:linearRGB;solid-color:#000000;solid-opacity:1;fill:#3251ab;fill-opacity:1;fill-rule:evenodd;stroke:none;stroke-width:1px;stroke-linecap:butt;stroke-linejoin:miter;stroke-miterlimit:4;stroke-dasharray:none;stroke-dashoffset:0;stroke-opacity:1;color-rendering:auto;image-rendering:auto;shape-rendering:auto;text-rendering:auto;enable-background:accumulate" />
    <text
       xml:space="preserve"
       style="font-style:normal;font-variant:normal;font-weight:bold;font-stretch:normal;font-size:62.5px;line-height:125%;font-family:'Clear Sans';-inkscape-font-specification:'Clear Sans, Bold';text-align:start;letter-spacing:0px;word-spacing:0px;writing-mode:lr-tb;text-anchor:start;fill:#3251ab;fill-opacity:1;stroke:none;stroke-width:1px;stroke-linecap:butt;stroke-linejoin:miter;stroke-opacity:1"
       x="238.43912"
       y="312.05005"
       id="text4276"
       sodipodi:linespacing="125%"><tspan
         sodipodi:role="line"
         id="tspan4278"
         x="238.43912"
         y="312.05005">1</tspan></text>
    <text
       xml:space="preserve"
       style="font-style:normal;font-variant:normal;font-weight:bold;font-stretch:normal;font-size:62.5px;line-height:125%;font-family:'Clear Sans';-inkscape-font-specification:'Clear Sans, Bold';text-align:start;letter-spacing:0px;word-spacing:0px;writing-mode:lr-tb;text-anchor:start;fill:#b71d47;fill-opacity:1;stroke:none;stroke-width:1px;stroke-linecap:butt;stroke-linejoin:miter;stroke-opacity:1"
       x="239.68263"
       y="475.19775"
       id="text4280"
       sodipodi:linespacing="125%"><tspan
         sodipodi:role="line"
         id="tspan4282"
         x="239.68263"
         y="475.19775">B</tspan></text>
    <path
       sodipodi:nodetypes="cccsssscccssssscccccccsssssccssssssccc"
       inkscape:connector-curvature="0"
       id="path4337"
       d="m 124.79312,387.63818 1.66857,0 c 0,0 0.0117,4.72905 1.99772,9.4268 1.98622,4.69776 5.78894,9.31891 13.85368,9.31891 4.02566,0 6.45658,-1.21257 8.78607,-2.49351 2.32948,-1.28097 4.59485,-2.67853 7.89961,-2.67853 2.29559,0 4.11594,1.06728 5.42937,2.61686 1.31344,1.54956 2.15322,3.54574 2.71469,5.49962 0.29297,1.01955 0.13464,1.0793 0.29657,2.02333 0.16401,-1.00254 0.005,-1.0746 0.31285,-2.16594 0.56059,-1.98929 1.39928,-4.02127 2.71142,-5.59981 1.31213,-1.57855 3.13617,-2.66695 5.43588,-2.66695 3.30477,0 5.56688,1.39756 7.89637,2.67851 2.32949,1.28094 4.76366,2.49351 8.78932,2.49351 8.06681,0 11.83949,-4.58713 13.79827,-9.24568 1.95752,-4.65548 1.94561,-9.33589 1.94559,-9.34201 l 0,-0.004 1.66857,-0.0197 0,0.004 0.10761,11.69681 0,0.004 c 0,0 0.0118,5.13712 -2.1737,10.30553 -2.18519,5.16839 -6.72532,10.41342 -15.34626,10.41342 -4.3172,0 -7.1202,-1.37361 -9.49324,-2.67851 -2.37305,-1.3049 -4.27882,-2.49351 -7.19244,-2.49351 -1.87172,0 -3.19193,0.80873 -4.24638,2.07728 -1.05447,1.26855 -1.80792,3.03374 -2.31711,4.84059 -1.01832,3.61366 -1.05261,7.28786 -1.05261,7.28786 l -1.66857,0 c 0,0 -0.0361,-3.59973 -1.05263,-7.13755 -0.50831,-1.76893 -1.26067,-3.49403 -2.31384,-4.73653 -1.05317,-1.24253 -2.37379,-2.03877 -4.24964,-2.03877 -2.91363,0 -4.82265,1.18864 -7.19571,2.49354 -2.37303,1.30488 -5.17278,2.6785 -9.48998,2.6785 -8.62093,0 -13.16105,-5.24118 -15.34626,-10.40957 -2.18521,-5.16841 -2.17371,-10.30937 -2.17371,-10.30937 l 0,-11.8394 z"
       style="color:#000000;font-style:normal;font-variant:normal;font-weight:normal;font-stretch:normal;font-size:medium;line-height:normal;font-family:sans-serif;text-indent:0;text-align:start;text-decoration:none;text-decoration-line:none;text-decoration-style:solid;text-decoration-color:#000000;letter-spacing:normal;word-spacing:normal;text-transform:none;direction:ltr;block-progression:tb;writing-mode:lr-tb;baseline-shift:baseline;text-anchor:start;white-space:normal;clip-rule:nonzero;display:inline;overflow:visible;visibility:visible;opacity:1;isolation:auto;mix-blend-mode:normal;color-interpolation:sRGB;color-interpolation-filters:linearRGB;solid-color:#000000;solid-opacity:1;fill:#b71d47;fill-opacity:1;fill-rule:evenodd;stroke:none;stroke-width:1px;stroke-linecap:butt;stroke-linejoin:miter;stroke-miterlimit:4;stroke-dasharray:none;stroke-dashoffset:0;stroke-opacity:1;color-rendering:auto;image-rendering:auto;shape-rendering:auto;text-rendering:auto;enable-background:accumulate" />
    <path
       style="color:#000000;font-style:normal;font-variant:normal;font-weight:normal;font-stretch:normal;font-size:medium;line-height:normal;font-family:sans-serif;text-indent:0;text-align:start;text-decoration:none;text-decoration-line:none;text-decoration-style:solid;text-decoration-color:#000000;letter-spacing:normal;word-spacing:normal;text-transform:none;direction:ltr;block-progression:tb;writing-mode:lr-tb;baseline-shift:baseline;text-anchor:start;white-space:normal;clip-rule:nonzero;display:inline;overflow:visible;visibility:visible;opacity:1;isolation:auto;mix-blend-mode:normal;color-interpolation:sRGB;color-interpolation-filters:linearRGB;solid-color:#000000;solid-opacity:1;fill:#b71d47;fill-opacity:1;fill-rule:evenodd;stroke:none;stroke-width:1px;stroke-linecap:butt;stroke-linejoin:miter;stroke-miterlimit:4;stroke-dasharray:none;stroke-dashoffset:0;stroke-opacity:1;color-rendering:auto;image-rendering:auto;shape-rendering:auto;text-rendering:auto;enable-background:accumulate"
       d="m 217.13447,387.63818 1.66857,0 c 0,0 0.0117,4.72905 1.99772,9.4268 1.98622,4.69776 5.78894,9.31891 13.85368,9.31891 4.02566,0 6.45658,-1.21257 8.78607,-2.49351 2.32948,-1.28097 4.59485,-2.67853 7.89961,-2.67853 2.29559,0 4.11594,1.06728 5.42937,2.61686 1.31344,1.54956 2.15322,3.54574 2.71469,5.49962 0.29297,1.01955 0.13464,1.0793 0.29657,2.02333 0.16401,-1.00254 0.005,-1.0746 0.31285,-2.16594 0.56059,-1.98929 1.39928,-4.02127 2.71142,-5.59981 1.31213,-1.57855 3.13617,-2.66695 5.43588,-2.66695 3.30477,0 5.56688,1.39756 7.89637,2.67851 2.32949,1.28094 4.76366,2.49351 8.78932,2.49351 8.06681,0 11.83949,-4.58713 13.79827,-9.24568 1.95752,-4.65548 1.94561,-9.33589 1.94559,-9.34201 l 0,-0.004 1.66857,-0.0197 0,0.004 0.10761,11.69681 0,0.004 c 0,0 0.0118,5.13712 -2.1737,10.30553 -2.18519,5.16839 -6.72532,10.41342 -15.34626,10.41342 -4.3172,0 -7.1202,-1.37361 -9.49324,-2.67851 -2.37305,-1.3049 -4.27882,-2.49351 -7.19244,-2.49351 -1.87172,0 -3.19193,0.80873 -4.24638,2.07728 -1.05447,1.26855 -1.80792,3.03374 -2.31711,4.84059 -1.01832,3.61366 -1.05261,7.28786 -1.05261,7.28786 l -1.66857,0 c 0,0 -0.0361,-3.59973 -1.05263,-7.13755 -0.50831,-1.76893 -1.26067,-3.49403 -2.31384,-4.73653 -1.05317,-1.24253 -2.37379,-2.03877 -4.24964,-2.03877 -2.91363,0 -4.82265,1.18864 -7.19571,2.49354 -2.37303,1.30488 -5.17278,2.6785 -9.48998,2.6785 -8.62093,0 -13.16105,-5.24118 -15.34626,-10.40957 -2.18521,-5.16841 -2.17371,-10.30937 -2.17371,-10.30937 l 0,-11.8394 z"
       id="path4339"
       inkscape:connector-curvature="0"
       sodipodi:nodetypes="cccsssscccssssscccccccsssssccssssssccc" />
    <path
       sodipodi:nodetypes="cccsssscccssssscccccccsssssccssssssccc"
       inkscape:connector-curvature="0"
       id="path4341"
       d="m 310.16876,387.63818 1.66857,0 c 0,0 0.0117,4.72905 1.99772,9.4268 1.98622,4.69776 5.78894,9.31891 13.85368,9.31891 4.02566,0 6.45658,-1.21257 8.78607,-2.49351 2.32948,-1.28097 4.59485,-2.67853 7.89961,-2.67853 2.29559,0 4.11594,1.06728 5.42937,2.61686 1.31344,1.54956 2.15322,3.54574 2.71469,5.49962 0.29297,1.01955 0.13464,1.0793 0.29657,2.02333 0.16401,-1.00254 0.005,-1.0746 0.31285,-2.16594 0.56059,-1.98929 1.39928,-4.02127 2.71142,-5.59981 1.31213,-1.57855 3.13617,-2.66695 5.43588,-2.66695 3.30477,0 5.56688,1.39756 7.89637,2.67851 2.32949,1.28094 4.76366,2.49351 8.78932,2.49351 8.06681,0 11.83949,-4.58713 13.79827,-9.24568 1.95752,-4.65548 1.94561,-9.33589 1.94559,-9.34201 l 0,-0.004 1.66857,-0.0197 0,0.004 0.10761,11.69681 0,0.004 c 0,0 0.0118,5.13712 -2.1737,10.30553 -2.18519,5.16839 -6.72532,10.41342 -15.34626,10.41342 -4.3172,0 -7.1202,-1.37361 -9.49324,-2.67851 -2.37305,-1.3049 -4.27882,-2.49351 -7.19244,-2.49351 -1.87172,0 -3.19193,0.80873 -4.24638,2.07728 -1.05447,1.26855 -1.80792,3.03374 -2.31711,4.84059 -1.01832,3.61366 -1.05261,7.28786 -1.05261,7.28786 l -1.66857,0 c 0,0 -0.0361,-3.59973 -1.05263,-7.13755 -0.50831,-1.76893 -1.26067,-3.49403 -2.31384,-4.73653 -1.05317,-1.24253 -2.37379,-2.03877 -4.24964,-2.03877 -2.91363,0 -4.82265,1.18864 -7.19571,2.49354 -2.37303,1.30488 -5.17278,2.6785 -9.48998,2.6785 -8.62093,0 -13.16105,-5.24118 -15.34626,-10.40957 -2.18521,-5.16841 -2.17371,-10.30937 -2.17371,-10.30937 l 0,-11.8394 z"
       style="color:#000000;font-style:normal;font-variant:normal;font-weight:normal;font-stretch:normal;font-size:medium;line-height:normal;font-family:sans-serif;text-indent:0;text-align:start;text-decoration:none;text-decoration-line:none;text-decoration-style:solid;text-decoration-color:#000000;letter-spacing:normal;word-spacing:normal;text-transform:none;direction:ltr;block-progression:tb;writing-mode:lr-tb;baseline-shift:baseline;text-anchor:start;white-space:normal;clip-rule:nonzero;display:inline;overflow:visible;visibility:visible;opacity:1;isolation:auto;mix-blend-mode:normal;color-interpolation:sRGB;color-interpolation-filters:linearRGB;solid-color:#000000;solid-opacity:1;fill:#b71d47;fill-opacity:1;fill-rule:evenodd;stroke:none;stroke-width:1px;stroke-linecap:butt;stroke-linejoin:miter;stroke-miterlimit:4;stroke-dasharray:none;stroke-dashoffset:0;stroke-opacity:1;color-rendering:auto;image-rendering:auto;shape-rendering:auto;text-rendering:auto;enable-background:accumulate" />
    <text
       sodipodi:linespacing="125%"
       id="text4343"
       y="475.19775"
       x="147.68263"
       style="font-style:normal;font-variant:normal;font-weight:bold;font-stretch:normal;font-size:62.5px;line-height:125%;font-family:'Clear Sans';-inkscape-font-specification:'Clear Sans, Bold';text-align:start;letter-spacing:0px;word-spacing:0px;writing-mode:lr-tb;text-anchor:start;fill:#b71d47;fill-opacity:1;stroke:none;stroke-width:1px;stroke-linecap:butt;stroke-linejoin:miter;stroke-opacity:1"
       xml:space="preserve"><tspan
         y="475.19775"
         x="147.68263"
         id="tspan4345"
         sodipodi:role="line">A</tspan></text>
    <text
       xml:space="preserve"
       style="font-style:normal;font-variant:normal;font-weight:bold;font-stretch:normal;font-size:62.5px;line-height:125%;font-family:'Clear Sans';-inkscape-font-specification:'Clear Sans, Bold';text-align:start;letter-spacing:0px;word-spacing:0px;writing-mode:lr-tb;text-anchor:start;fill:#b71d47;fill-opacity:1;stroke:none;stroke-width:1px;stroke-linecap:butt;stroke-linejoin:miter;stroke-opacity:1"
       x="331.68262"
       y="475.19775"
       id="text4347"
       sodipodi:linespacing="125%"><tspan
         sodipodi:role="line"
         id="tspan4349"
         x="331.68262"
         y="475.19775">C</tspan></text>
    <text
       xml:space="preserve"
       style="font-style:normal;font-variant:normal;font-weight:bold;font-stretch:normal;font-size:62.5px;line-height:125%;font-family:'Clear Sans';-inkscape-font-specification:'Clear Sans, Bold';text-align:start;letter-spacing:0px;word-spacing:0px;writing-mode:lr-tb;text-anchor:start;fill:#000000;fill-opacity:1;stroke:none;stroke-width:1px;stroke-linecap:butt;stroke-linejoin:miter;stroke-opacity:1"
       x="320.1561"
       y="300.34143"
       id="text4355"
       sodipodi:linespacing="125%"><tspan
         sodipodi:role="line"
         id="tspan4357"
         x="320.1561"
         y="300.34143"
         style="font-size:25px">Bridge</tspan></text>
    <path
       style="fill:none;fill-rule:evenodd;stroke:#000000;stroke-width:2;stroke-linecap:butt;stroke-linejoin:miter;stroke-miterlimit:4;stroke-dasharray:none;stroke-opacity:1;marker-end:url(#Arrow1Mend)"
       d="m 320,292.3622 c -25,0 -35,30 -40,65"
       id="path4359"
       inkscape:connector-curvature="0"
       sodipodi:nodetypes="cc" />
  </g>
</svg>
