<?xml version="1.0" encoding="UTF-8" standalone="no"?>
<!-- Created with Inkscape (http://www.inkscape.org/) -->

<svg
   xmlns:dc="http://purl.org/dc/elements/1.1/"
   xmlns:cc="http://creativecommons.org/ns#"
   xmlns:rdf="http://www.w3.org/1999/02/22-rdf-syntax-ns#"
   xmlns:svg="http://www.w3.org/2000/svg"
   xmlns="http://www.w3.org/2000/svg"
   xmlns:sodipodi="http://sodipodi.sourceforge.net/DTD/sodipodi-0.dtd"
   xmlns:inkscape="http://www.inkscape.org/namespaces/inkscape"
   width="157.52045mm"
   height="64.379066mm"
   viewBox="0 0 558.14332 228.1148"
   id="svg2"
   version="1.1"
   inkscape:version="0.91 r13725"
   sodipodi:docname="segment_3.svg">
  <defs
     id="defs4">
    <marker
       inkscape:isstock="true"
       style="overflow:visible;"
       id="marker7658"
       refX="0.0"
       refY="0.0"
       orient="auto"
       inkscape:stockid="Arrow2Send">
      <path
         transform="scale(0.3) rotate(180) translate(-2.3,0)"
         d="M 8.7185878,4.0337352 L -2.2072895,0.016013256 L 8.7185884,-4.0017078 C 6.9730900,-1.6296469 6.9831476,1.6157441 8.7185878,4.0337352 z "
         style="fill-rule:evenodd;stroke-width:0.625;stroke-linejoin:round;stroke:#939393;stroke-opacity:1;fill:#939393;fill-opacity:1"
         id="path7660" />
    </marker>
    <marker
       inkscape:stockid="Arrow2Send"
       orient="auto"
       refY="0.0"
       refX="0.0"
       id="Arrow2Send"
       style="overflow:visible;"
       inkscape:isstock="true"
       inkscape:collect="always">
      <path
         id="path5005"
         style="fill-rule:evenodd;stroke-width:0.625;stroke-linejoin:round;stroke:#939393;stroke-opacity:1;fill:#939393;fill-opacity:1"
         d="M 8.7185878,4.0337352 L -2.2072895,0.016013256 L 8.7185884,-4.0017078 C 6.9730900,-1.6296469 6.9831476,1.6157441 8.7185878,4.0337352 z "
         transform="scale(0.3) rotate(180) translate(-2.3,0)" />
    </marker>
    <marker
       inkscape:stockid="Arrow1Send"
       orient="auto"
       refY="0.0"
       refX="0.0"
       id="Arrow1Send"
       style="overflow:visible;"
       inkscape:isstock="true">
      <path
         id="path4987"
         d="M 0.0,0.0 L 5.0,-5.0 L -12.5,0.0 L 5.0,5.0 L 0.0,0.0 z "
         style="fill-rule:evenodd;stroke:#939393;stroke-width:1pt;stroke-opacity:1;fill:#939393;fill-opacity:1"
         transform="scale(0.2) rotate(180) translate(6,0)" />
    </marker>
    <marker
       inkscape:stockid="Arrow1Mend"
       orient="auto"
       refY="0.0"
       refX="0.0"
       id="Arrow1Mend"
       style="overflow:visible;"
       inkscape:isstock="true">
      <path
         id="path4981"
         d="M 0.0,0.0 L 5.0,-5.0 L -12.5,0.0 L 5.0,5.0 L 0.0,0.0 z "
         style="fill-rule:evenodd;stroke:#939393;stroke-width:1pt;stroke-opacity:1;fill:#939393;fill-opacity:1"
         transform="scale(0.4) rotate(180) translate(10,0)" />
    </marker>
    <marker
       inkscape:stockid="Arrow2Mend"
       orient="auto"
       refY="0"
       refX="0"
       id="marker6752"
       style="overflow:visible"
       inkscape:isstock="true">
      <path
         inkscape:connector-curvature="0"
         id="path6754"
         style="fill:#939393;fill-opacity:1;fill-rule:evenodd;stroke:#939393;stroke-width:0.625;stroke-linejoin:round;stroke-opacity:1"
         d="M 8.7185878,4.0337352 -2.2072895,0.01601326 8.7185884,-4.0017078 c -1.7454984,2.3720609 -1.7354408,5.6174519 -6e-7,8.035443 z"
         transform="scale(-0.6,-0.6)" />
    </marker>
    <marker
       inkscape:stockid="Arrow2Mend"
       orient="auto"
       refY="0"
       refX="0"
       id="marker6344"
       style="overflow:visible"
       inkscape:isstock="true">
      <path
         inkscape:connector-curvature="0"
         id="path6346"
         style="fill:#939393;fill-opacity:1;fill-rule:evenodd;stroke:#939393;stroke-width:0.625;stroke-linejoin:round;stroke-opacity:1"
         d="M 8.7185878,4.0337352 -2.2072895,0.01601326 8.7185884,-4.0017078 c -1.7454984,2.3720609 -1.7354408,5.6174519 -6e-7,8.035443 z"
         transform="scale(-0.6,-0.6)" />
    </marker>
    <marker
       inkscape:isstock="true"
       style="overflow:visible"
       id="marker6231"
       refX="0"
       refY="0"
       orient="auto"
       inkscape:stockid="Arrow2Mend">
      <path
         transform="scale(-0.6,-0.6)"
         d="M 8.7185878,4.0337352 -2.2072895,0.01601326 8.7185884,-4.0017078 c -1.7454984,2.3720609 -1.7354408,5.6174519 -6e-7,8.035443 z"
         style="fill:#000000;fill-opacity:1;fill-rule:evenodd;stroke:#000000;stroke-width:0.625;stroke-linejoin:round;stroke-opacity:1"
         id="path6233"
         inkscape:connector-curvature="0" />
    </marker>
    <marker
       inkscape:isstock="true"
       style="overflow:visible"
       id="marker6221"
       refX="0"
       refY="0"
       orient="auto"
       inkscape:stockid="Arrow2Mend"
       inkscape:collect="always">
      <path
         transform="scale(-0.6,-0.6)"
         d="M 8.7185878,4.0337352 -2.2072895,0.01601326 8.7185884,-4.0017078 c -1.7454984,2.3720609 -1.7354408,5.6174519 -6e-7,8.035443 z"
         style="fill:#939393;fill-opacity:1;fill-rule:evenodd;stroke:#939393;stroke-width:0.625;stroke-linejoin:round;stroke-opacity:1"
         id="path6223"
         inkscape:connector-curvature="0" />
    </marker>
    <marker
       inkscape:stockid="Arrow2Mend"
       orient="auto"
       refY="0"
       refX="0"
       id="Arrow2Mend"
       style="overflow:visible"
       inkscape:isstock="true"
       inkscape:collect="always">
      <path
         id="path4999"
         style="fill:#000000;fill-opacity:1;fill-rule:evenodd;stroke:#000000;stroke-width:0.625;stroke-linejoin:round;stroke-opacity:1"
         d="M 8.7185878,4.0337352 -2.2072895,0.01601326 8.7185884,-4.0017078 c -1.7454984,2.3720609 -1.7354408,5.6174519 -6e-7,8.035443 z"
         transform="scale(-0.6,-0.6)"
         inkscape:connector-curvature="0" />
    </marker>
    <marker
       inkscape:isstock="true"
       style="overflow:visible"
       id="marker6065"
       refX="0"
       refY="0"
       orient="auto"
       inkscape:stockid="Arrow2Lend">
      <path
         transform="matrix(-1.1,0,0,-1.1,-1.1,0)"
         d="M 8.7185878,4.0337352 -2.2072895,0.01601326 8.7185884,-4.0017078 c -1.7454984,2.3720609 -1.7354408,5.6174519 -6e-7,8.035443 z"
         style="fill:#000000;fill-opacity:1;fill-rule:evenodd;stroke:#000000;stroke-width:0.625;stroke-linejoin:round;stroke-opacity:1"
         id="path6067"
         inkscape:connector-curvature="0" />
    </marker>
    <marker
       inkscape:isstock="true"
       style="overflow:visible"
       id="marker6001"
       refX="0"
       refY="0"
       orient="auto"
       inkscape:stockid="Arrow2Lend">
      <path
         transform="matrix(-1.1,0,0,-1.1,-1.1,0)"
         d="M 8.7185878,4.0337352 -2.2072895,0.01601326 8.7185884,-4.0017078 c -1.7454984,2.3720609 -1.7354408,5.6174519 -6e-7,8.035443 z"
         style="fill:#000000;fill-opacity:1;fill-rule:evenodd;stroke:#000000;stroke-width:0.625;stroke-linejoin:round;stroke-opacity:1"
         id="path6003"
         inkscape:connector-curvature="0" />
    </marker>
    <marker
       inkscape:isstock="true"
       style="overflow:visible"
       id="marker5668"
       refX="0"
       refY="0"
       orient="auto"
       inkscape:stockid="TriangleOutS">
      <path
         transform="scale(0.2,0.2)"
         style="fill:#43981c;fill-opacity:1;fill-rule:evenodd;stroke:#43981c;stroke-width:1pt;stroke-opacity:1"
         d="m 5.77,0 -8.65,5 0,-10 8.65,5 z"
         id="path5670"
         inkscape:connector-curvature="0" />
    </marker>
    <marker
       inkscape:stockid="TriangleOutS"
       orient="auto"
       refY="0"
       refX="0"
       id="TriangleOutS"
       style="overflow:visible"
       inkscape:isstock="true"
       inkscape:collect="always">
      <path
         id="path5120"
         d="m 5.77,0 -8.65,5 0,-10 8.65,5 z"
         style="fill:#43981c;fill-opacity:1;fill-rule:evenodd;stroke:#43981c;stroke-width:1pt;stroke-opacity:1"
         transform="scale(0.2,0.2)"
         inkscape:connector-curvature="0" />
    </marker>
    <marker
       inkscape:isstock="true"
       style="overflow:visible"
       id="marker5512"
       refX="0"
       refY="0"
       orient="auto"
       inkscape:stockid="Arrow2Send">
      <path
         transform="matrix(-0.3,0,0,-0.3,0.69,0)"
         d="M 8.7185878,4.0337352 -2.2072895,0.01601326 8.7185884,-4.0017078 c -1.7454984,2.3720609 -1.7354408,5.6174519 -6e-7,8.035443 z"
         style="fill:#939393;fill-opacity:1;fill-rule:evenodd;stroke:#939393;stroke-width:0.625;stroke-linejoin:round;stroke-opacity:1"
         id="path5514"
         inkscape:connector-curvature="0" />
    </marker>
    <marker
       inkscape:isstock="true"
       style="overflow:visible"
       id="marker5374"
       refX="0"
       refY="0"
       orient="auto"
       inkscape:stockid="Arrow1Send">
      <path
         transform="matrix(-0.2,0,0,-0.2,-1.2,0)"
         style="fill:#939393;fill-opacity:1;fill-rule:evenodd;stroke:#939393;stroke-width:1pt;stroke-opacity:1"
         d="M 0,0 5,-5 -12.5,0 5,5 0,0 Z"
         id="path5376"
         inkscape:connector-curvature="0" />
    </marker>
    <marker
       inkscape:isstock="true"
       style="overflow:visible"
       id="marker5308"
       refX="0"
       refY="0"
       orient="auto"
       inkscape:stockid="DotS">
      <path
         transform="matrix(0.2,0,0,0.2,1.48,0.2)"
         style="fill:#43981c;fill-opacity:1;fill-rule:evenodd;stroke:#43981c;stroke-width:1pt;stroke-opacity:1"
         d="m -2.5,-1 c 0,2.76 -2.24,5 -5,5 -2.76,0 -5,-2.24 -5,-5 0,-2.76 2.24,-5 5,-5 2.76,0 5,2.24 5,5 z"
         id="path5310"
         inkscape:connector-curvature="0" />
    </marker>
    <marker
       inkscape:stockid="DotS"
       orient="auto"
       refY="0"
       refX="0"
       id="DotS"
       style="overflow:visible"
       inkscape:isstock="true"
       inkscape:collect="always">
      <path
         id="path5039"
         d="m -2.5,-1 c 0,2.76 -2.24,5 -5,5 -2.76,0 -5,-2.24 -5,-5 0,-2.76 2.24,-5 5,-5 2.76,0 5,2.24 5,5 z"
         style="fill:#43981c;fill-opacity:1;fill-rule:evenodd;stroke:#43981c;stroke-width:1pt;stroke-opacity:1"
         transform="matrix(0.2,0,0,0.2,1.48,0.2)"
         inkscape:connector-curvature="0" />
    </marker>
    <marker
       inkscape:isstock="true"
       style="overflow:visible"
       id="marker5248"
       refX="0"
       refY="0"
       orient="auto"
       inkscape:stockid="DotL">
      <path
         transform="matrix(0.8,0,0,0.8,5.92,0.8)"
         style="fill:#000000;fill-opacity:1;fill-rule:evenodd;stroke:#000000;stroke-width:1pt;stroke-opacity:1"
         d="m -2.5,-1 c 0,2.76 -2.24,5 -5,5 -2.76,0 -5,-2.24 -5,-5 0,-2.76 2.24,-5 5,-5 2.76,0 5,2.24 5,5 z"
         id="path5250"
         inkscape:connector-curvature="0" />
    </marker>
    <marker
       inkscape:isstock="true"
       style="overflow:visible"
       id="marker5374-2"
       refX="0"
       refY="0"
       orient="auto"
       inkscape:stockid="Arrow1Send">
      <path
         transform="matrix(-0.2,0,0,-0.2,-1.2,0)"
         style="fill:#939393;fill-opacity:1;fill-rule:evenodd;stroke:#939393;stroke-width:1pt;stroke-opacity:1"
         d="M 0,0 5,-5 -12.5,0 5,5 0,0 Z"
         id="path5376-0"
         inkscape:connector-curvature="0" />
    </marker>
  </defs>
  <sodipodi:namedview
     id="base"
     pagecolor="#ffffff"
     bordercolor="#666666"
     borderopacity="1.0"
     inkscape:pageopacity="0.0"
     inkscape:pageshadow="2"
     inkscape:zoom="5.310464"
     inkscape:cx="279.07166"
     inkscape:cy="102.94567"
     inkscape:document-units="px"
     inkscape:current-layer="layer1"
     showgrid="false"
     fit-margin-top="0"
     fit-margin-left="0"
     fit-margin-right="0"
     fit-margin-bottom="0"
     inkscape:window-width="3710"
     inkscape:window-height="2112"
     inkscape:window-x="1810"
     inkscape:window-y="48"
     inkscape:window-maximized="1"
     showguides="false" />
  <metadata
     id="metadata7">
    <rdf:RDF>
      <cc:Work
         rdf:about="">
        <dc:format>image/svg+xml</dc:format>
        <dc:type
           rdf:resource="http://purl.org/dc/dcmitype/StillImage" />
        <dc:title></dc:title>
      </cc:Work>
    </rdf:RDF>
  </metadata>
  <g
     inkscape:label="Layer 1"
     inkscape:groupmode="layer"
     id="layer1"
     transform="translate(-36.321979,-158.88026)">
    <path
       style="fill:none;fill-rule:evenodd;stroke:#000000;stroke-width:20;stroke-linecap:butt;stroke-linejoin:miter;stroke-miterlimit:4;stroke-dasharray:none;stroke-opacity:1"
       d="m 47.137057,213.21297 c 40.242652,21.33086 85.090373,38.34447 103.043803,80.57148 -68.256819,21.22447 -65.199479,53.3011 -68.513168,84.40822"
       id="path4136"
       inkscape:connector-curvature="0"
       sodipodi:nodetypes="ccc" />
    <g
       id="g4233">
      <path
         id="path4217"
         transform="translate(36.321979,181.10373)"
         d="m 228.6875,51.433594 -6.46875,25.46875 c 13.47823,1.563127 27.68342,10.416906 43.88867,21.654297 13.02272,9.030479 27.03475,19.512079 43.11524,25.486329 l 6.07617,-25.960939 C 304.49805,93.355876 293.1093,85.641309 280.92383,77.191406 265.53976,66.523458 248.4801,54.615298 228.6875,51.433594 Z"
         style="color:#000000;font-style:normal;font-variant:normal;font-weight:normal;font-stretch:normal;font-size:medium;line-height:normal;font-family:sans-serif;text-indent:0;text-align:start;text-decoration:none;text-decoration-line:none;text-decoration-style:solid;text-decoration-color:#000000;letter-spacing:normal;word-spacing:normal;text-transform:none;direction:ltr;block-progression:tb;writing-mode:lr-tb;baseline-shift:baseline;text-anchor:start;white-space:normal;clip-rule:nonzero;display:inline;overflow:visible;visibility:visible;opacity:1;isolation:auto;mix-blend-mode:normal;color-interpolation:sRGB;color-interpolation-filters:linearRGB;solid-color:#000000;solid-opacity:1;fill:#000000;fill-opacity:1;fill-rule:evenodd;stroke:none;stroke-width:26;stroke-linecap:butt;stroke-linejoin:miter;stroke-miterlimit:4;stroke-dasharray:none;stroke-dashoffset:0;stroke-opacity:1;color-rendering:auto;image-rendering:auto;shape-rendering:auto;text-rendering:auto;enable-background:accumulate"
         inkscape:connector-curvature="0" />
      <path
         inkscape:connector-curvature="0"
         id="path4225"
         d="m 265.68047,234.65432 -4.70769,-8.47384"
         style="fill:none;fill-rule:evenodd;stroke:#000000;stroke-width:4;stroke-linecap:butt;stroke-linejoin:miter;stroke-miterlimit:4;stroke-dasharray:none;stroke-opacity:1" />
      <path
         inkscape:connector-curvature="0"
         id="path4227"
         d="m 260.59617,256.8746 -7.90892,3.76615"
         style="fill:none;fill-rule:evenodd;stroke:#000000;stroke-width:4;stroke-linecap:butt;stroke-linejoin:miter;stroke-miterlimit:4;stroke-dasharray:none;stroke-opacity:1" />
      <path
         inkscape:connector-curvature="0"
         id="path4229"
         d="m 350.41883,280.97796 9.22706,-2.448"
         style="fill:none;fill-rule:evenodd;stroke:#000000;stroke-width:4;stroke-linecap:butt;stroke-linejoin:miter;stroke-miterlimit:4;stroke-dasharray:none;stroke-opacity:1" />
      <path
         inkscape:connector-curvature="0"
         id="path4231"
         d="m 345.14622,302.63331 3.76615,8.47384"
         style="fill:none;fill-rule:evenodd;stroke:#000000;stroke-width:4;stroke-linecap:butt;stroke-linejoin:miter;stroke-miterlimit:4;stroke-dasharray:none;stroke-opacity:1" />
    </g>
    <path
       style="fill:none;fill-rule:evenodd;stroke:#000000;stroke-width:20;stroke-linecap:butt;stroke-linejoin:miter;stroke-miterlimit:4;stroke-dasharray:none;stroke-opacity:1"
       d="m 150.00044,293.77645 c 28.65319,1.73656 80.67886,-45.93983 97.46911,-48.49932 44.63267,-6.80376 79.9791,52.77618 125.11432,51.69011 38.46378,-0.92553 70.86,-39.91758 108.11377,-53.57729"
       id="path4138"
       inkscape:connector-curvature="0"
       sodipodi:nodetypes="cssc" />
    <path
       style="fill:none;fill-rule:evenodd;stroke:#000000;stroke-width:20;stroke-linecap:butt;stroke-linejoin:miter;stroke-miterlimit:4;stroke-dasharray:none;stroke-opacity:1"
       d="m 583.73216,191.83686 -103.0438,51.5219 c 45.66424,31.6065 73.23861,68.94882 59.19538,119.48696"
       id="path4140"
       inkscape:connector-curvature="0"
       sodipodi:nodetypes="ccc" />
    <path
       sodipodi:nodetypes="ccc"
       inkscape:connector-curvature="0"
       id="path4142"
       d="m 47.137057,213.21297 c 40.242652,21.33086 85.090373,38.34447 103.043803,80.57148 -68.256819,21.22447 -65.199479,53.3011 -68.513168,84.40822"
       style="fill:none;fill-rule:evenodd;stroke:#ffffff;stroke-width:16;stroke-linecap:square;stroke-linejoin:miter;stroke-miterlimit:4;stroke-dasharray:none;stroke-opacity:1" />
    <path
       sodipodi:nodetypes="cssc"
       inkscape:connector-curvature="0"
       id="path4144"
       d="m 150.00044,293.77645 c 28.65319,1.73656 80.67886,-45.93983 97.46911,-48.49932 44.63267,-6.80376 79.9791,52.77618 125.11432,51.69011 38.46378,-0.92553 70.86,-39.91758 108.11377,-53.57729"
       style="fill:none;fill-rule:evenodd;stroke:#ffffff;stroke-width:16;stroke-linecap:butt;stroke-linejoin:miter;stroke-miterlimit:4;stroke-dasharray:none;stroke-opacity:1" />
    <path
       sodipodi:nodetypes="ccc"
       inkscape:connector-curvature="0"
       id="path4146"
       d="m 583.73216,191.83686 -103.0438,51.5219 c 45.66424,31.6065 73.23861,68.94882 59.19538,119.48696"
       style="fill:none;fill-rule:evenodd;stroke:#ffffff;stroke-width:16;stroke-linecap:square;stroke-linejoin:miter;stroke-miterlimit:4;stroke-dasharray:none;stroke-opacity:1" />
    <path
       style="fill:none;fill-rule:evenodd;stroke:#c2c2c2;stroke-width:4;stroke-linecap:butt;stroke-linejoin:miter;stroke-miterlimit:4;stroke-dasharray:4, 4;stroke-dashoffset:0;stroke-opacity:1"
       d="m 150.00044,293.77645 c 28.65319,1.73656 80.67886,-45.93983 97.46911,-48.49932 44.63267,-6.80376 79.9791,52.77618 125.11432,51.69011 38.46378,-0.92553 70.86,-39.91758 108.11377,-53.57729"
       id="path4200"
       inkscape:connector-curvature="0"
       sodipodi:nodetypes="cssc" />
    <path
       style="fill:none;fill-rule:evenodd;stroke:#939393;stroke-width:3;stroke-linecap:butt;stroke-linejoin:miter;stroke-miterlimit:4;stroke-dasharray:none;stroke-opacity:1;marker-end:"
       d="m 149.49476,293.59457 0,-63.64793"
       id="path6328"
       inkscape:connector-curvature="0" />
    <path
       style="fill:#43981c;fill-opacity:1;fill-rule:evenodd;stroke:#43981c;stroke-width:6;stroke-linecap:butt;stroke-linejoin:miter;stroke-miterlimit:4;stroke-dasharray:none;stroke-opacity:1;marker-start:url(#marker5308);marker-end:url(#marker5668)"
       d="M 149.68307,293.78287 216.72053,261.5823"
       id="path4962"
       inkscape:connector-curvature="0" />
    <path
       style="fill:none;fill-rule:evenodd;stroke:#939393;stroke-width:3;stroke-linecap:butt;stroke-linejoin:miter;stroke-miterlimit:4;stroke-dasharray:none;stroke-opacity:1"
       d="m 334.11801,285.80046 0,-63.64793"
       id="path6328-5"
       inkscape:connector-curvature="0" />
    <path
       inkscape:connector-curvature="0"
       id="path4966"
       d="m 334.03607,285.87396 77.58268,-1.50645"
       style="fill:#43981c;fill-opacity:1;fill-rule:evenodd;stroke:#43981c;stroke-width:6;stroke-linecap:butt;stroke-linejoin:miter;stroke-miterlimit:4;stroke-dasharray:none;stroke-opacity:1;marker-start:url(#DotS);marker-end:url(#TriangleOutS)"
       sodipodi:nodetypes="cc" />
    <circle
       style="opacity:1;fill:#43981c;fill-opacity:1;stroke:none;stroke-width:6;stroke-linecap:square;stroke-linejoin:round;stroke-miterlimit:4;stroke-dasharray:none;stroke-dashoffset:0;stroke-opacity:1"
       id="path5888"
       cx="481.48083"
       cy="242.93985"
       r="6.7790689" />
    <text
       xml:space="preserve"
       style="font-style:normal;font-variant:normal;font-weight:bold;font-stretch:normal;font-size:62.5px;line-height:125%;font-family:'Clear Sans';-inkscape-font-specification:'Clear Sans, Bold';text-align:start;letter-spacing:0px;word-spacing:0px;writing-mode:lr-tb;text-anchor:start;fill:#000000;fill-opacity:1;stroke:none;stroke-width:1px;stroke-linecap:butt;stroke-linejoin:miter;stroke-opacity:1"
       x="136.12494"
       y="377.20306"
       id="text5909"
       sodipodi:linespacing="125%"><tspan
         sodipodi:role="line"
         id="tspan5911"
         x="136.12494"
         y="377.20306"
         style="font-size:37.5px">LRP1</tspan></text>
    <text
       sodipodi:linespacing="125%"
       id="text5913"
       y="377.39136"
       x="320.47797"
       style="font-style:normal;font-variant:normal;font-weight:bold;font-stretch:normal;font-size:62.5px;line-height:125%;font-family:'Clear Sans';-inkscape-font-specification:'Clear Sans, Bold';text-align:start;letter-spacing:0px;word-spacing:0px;writing-mode:lr-tb;text-anchor:start;fill:#000000;fill-opacity:1;stroke:none;stroke-width:1px;stroke-linecap:butt;stroke-linejoin:miter;stroke-opacity:1"
       xml:space="preserve"><tspan
         style="font-size:37.5px"
         y="377.39136"
         x="320.47797"
         id="tspan5915"
         sodipodi:role="line">LRP2</tspan></text>
    <text
       xml:space="preserve"
       style="font-style:normal;font-variant:normal;font-weight:bold;font-stretch:normal;font-size:62.5px;line-height:80.00000119%;font-family:'Clear Sans';-inkscape-font-specification:'Clear Sans, Bold';text-align:start;letter-spacing:0px;word-spacing:0px;writing-mode:lr-tb;text-anchor:start;fill:#000000;fill-opacity:1;stroke:none;stroke-width:1px;stroke-linecap:butt;stroke-linejoin:miter;stroke-opacity:1"
       x="454.74118"
       y="354.79446"
       id="text5927"
       sodipodi:linespacing="80.000001%"><tspan
         sodipodi:role="line"
         id="tspan5929"
         x="454.74118"
         y="354.79446"
         style="font-style:normal;font-variant:normal;font-weight:bold;font-stretch:normal;font-size:25px;line-height:80.00000119%;font-family:'Clear Sans';-inkscape-font-specification:'Clear Sans, Bold';text-align:start;writing-mode:lr-tb;text-anchor:start">final</tspan><tspan
         sodipodi:role="line"
         x="454.74118"
         y="374.79446"
         style="font-style:normal;font-variant:normal;font-weight:bold;font-stretch:normal;font-size:25px;line-height:80.00000119%;font-family:'Clear Sans';-inkscape-font-specification:'Clear Sans, Bold';text-align:start;writing-mode:lr-tb;text-anchor:start"
         id="tspan5931">point</tspan></text>
    <path
       style="fill:none;fill-rule:evenodd;stroke:#000000;stroke-width:1px;stroke-linecap:butt;stroke-linejoin:miter;stroke-opacity:1;marker-end:url(#marker6231)"
       d="m 147.9883,342.3662 0.37662,-36.71996"
       id="path5933"
       inkscape:connector-curvature="0" />
    <path
       style="fill:none;fill-rule:evenodd;stroke:#000000;stroke-width:1px;stroke-linecap:butt;stroke-linejoin:miter;stroke-opacity:1;marker-end:url(#Arrow2Mend)"
       d="m 326.88039,339.16497 3.95446,-37.66149"
       id="path5935"
       inkscape:connector-curvature="0" />
    <path
       style="fill:none;fill-rule:evenodd;stroke:#000000;stroke-width:1px;stroke-linecap:butt;stroke-linejoin:miter;stroke-opacity:1;marker-end:url(#marker6221)"
       d="m 483.36389,332.1976 -2.07138,-72.49838"
       id="path5937"
       inkscape:connector-curvature="0" />
    <g
       id="g6323">
      <path
         sodipodi:nodetypes="cccsssscccssssscccccccsssssccssssssccc"
         inkscape:connector-curvature="0"
         id="path5905"
         d="m 135.46142,226.03681 6.98313,0 c 0,0 0.049,-4.72905 8.36066,-9.4268 8.31252,-4.69776 24.22728,-9.31891 57.97902,-9.31891 16.84778,0 27.02142,1.21257 36.77057,2.49351 9.7491,1.28097 19.2299,2.67853 33.06065,2.67853 9.60727,0 17.22561,-1.06728 22.72245,-2.61686 5.49687,-1.54956 9.01144,-3.54574 11.36124,-5.49962 1.22611,-1.01955 0.56348,-1.0793 1.24118,-2.02333 0.6864,1.00254 0.0209,1.0746 1.30931,2.16594 2.34612,1.98929 5.85612,4.02127 11.34756,5.59981 5.49139,1.57855 13.12518,2.66695 22.74969,2.66695 13.83079,0 23.29794,-1.39756 33.04709,-2.67851 9.74915,-1.28094 19.93639,-2.49351 36.78417,-2.49351 33.7604,0 49.54944,4.58713 57.74713,9.24568 8.19241,4.65548 8.14257,9.33589 8.14248,9.34201 l 0,0.004 6.98313,0.0197 0,-0.004 0.45036,-11.69681 0,-0.004 c 0,0 0.0494,-5.13712 -9.09715,-10.30553 -9.14523,-5.16839 -28.14613,-10.41342 -64.22561,-10.41342 -18.06791,0 -29.79874,1.37361 -39.73015,2.67851 -9.93145,1.3049 -17.90728,2.49351 -30.10107,2.49351 -7.83334,0 -13.35854,-0.80873 -17.77152,-2.07728 -4.41306,-1.26855 -7.56633,-3.03374 -9.69734,-4.84059 -4.26177,-3.61366 -4.40527,-7.28786 -4.40527,-7.28786 l -6.98313,0 c 0,0 -0.15109,3.59973 -4.40536,7.13755 -2.12733,1.76893 -5.27603,3.49403 -9.68365,4.73653 -4.40762,1.24253 -9.93455,2.03877 -17.78517,2.03877 -12.19383,0 -20.18326,-1.18864 -30.11475,-2.49354 -9.93137,-1.30488 -21.6486,-2.6785 -39.71651,-2.6785 -36.07944,0 -55.08029,5.24118 -64.22561,10.40957 -9.14532,5.16841 -9.0972,10.30937 -9.0972,10.30937 l 0,11.8394 z"
         style="color:#000000;font-style:normal;font-variant:normal;font-weight:normal;font-stretch:normal;font-size:medium;line-height:normal;font-family:sans-serif;text-indent:0;text-align:start;text-decoration:none;text-decoration-line:none;text-decoration-style:solid;text-decoration-color:#000000;letter-spacing:normal;word-spacing:normal;text-transform:none;direction:ltr;block-progression:tb;writing-mode:lr-tb;baseline-shift:baseline;text-anchor:start;white-space:normal;clip-rule:nonzero;display:inline;overflow:visible;visibility:visible;opacity:1;isolation:auto;mix-blend-mode:normal;color-interpolation:sRGB;color-interpolation-filters:linearRGB;solid-color:#000000;solid-opacity:1;fill:#b71d47;fill-opacity:1;fill-rule:evenodd;stroke:none;stroke-width:1px;stroke-linecap:butt;stroke-linejoin:miter;stroke-miterlimit:4;stroke-dasharray:none;stroke-dashoffset:0;stroke-opacity:1;color-rendering:auto;image-rendering:auto;shape-rendering:auto;text-rendering:auto;enable-background:accumulate" />
      <text
         sodipodi:linespacing="125%"
         id="text6319"
         y="183.43471"
         x="238.37589"
         style="font-style:normal;font-variant:normal;font-weight:bold;font-stretch:normal;font-size:62.5px;line-height:125%;font-family:'Clear Sans';-inkscape-font-specification:'Clear Sans, Bold';text-align:start;letter-spacing:0px;word-spacing:0px;writing-mode:lr-tb;text-anchor:start;fill:#b71d47;fill-opacity:1;stroke:none;stroke-width:1px;stroke-linecap:butt;stroke-linejoin:miter;stroke-opacity:1"
         xml:space="preserve"><tspan
           style="font-size:37.5px;fill:#b71d47;fill-opacity:1"
           y="183.43471"
           x="238.37589"
           id="tspan6321"
           sodipodi:role="line">segment</tspan></text>
    </g>
    <path
       style="opacity:1;fill:none;fill-opacity:1;stroke:#939393;stroke-width:3;stroke-linecap:square;stroke-linejoin:round;stroke-miterlimit:4;stroke-dasharray:none;stroke-dashoffset:0;stroke-opacity:1;marker-end:url(#marker7658)"
       id="path6330"
       sodipodi:type="arc"
       sodipodi:cx="149.30644"
       sodipodi:cy="293.40625"
       sodipodi:rx="51.784554"
       sodipodi:ry="51.784554"
       sodipodi:start="4.7206193"
       sodipodi:end="5.6783756"
       d="m 149.73264,241.62345 a 51.784554,51.784554 0 0 1 42.17231,22.33782"
       sodipodi:open="true" />
    <text
       xml:space="preserve"
       style="font-style:normal;font-variant:normal;font-weight:bold;font-stretch:normal;font-size:62.5px;line-height:125%;font-family:'Clear Sans';-inkscape-font-specification:'Clear Sans, Bold';text-align:start;letter-spacing:0px;word-spacing:0px;writing-mode:lr-tb;text-anchor:start;fill:#939393;fill-opacity:1;stroke:none;stroke-width:1px;stroke-linecap:butt;stroke-linejoin:miter;stroke-opacity:1"
       x="151.18953"
       y="238.6088"
       id="text7132"
       sodipodi:linespacing="125%"><tspan
         sodipodi:role="line"
         id="tspan7134"
         x="151.18953"
         y="238.6088"
         style="font-size:20px;fill:#939393;fill-opacity:1">bearing</tspan></text>
    <path
       style="opacity:1;fill:none;fill-opacity:1;stroke:#939393;stroke-width:3;stroke-linecap:square;stroke-linejoin:round;stroke-miterlimit:4;stroke-dasharray:none;stroke-dashoffset:0;stroke-opacity:1;marker-end:url(#Arrow2Send)"
       id="path6330-5"
       sodipodi:type="arc"
       sodipodi:cx="333.92969"
       sodipodi:cy="285.61215"
       sodipodi:rx="51.784554"
       sodipodi:ry="51.784554"
       sodipodi:start="4.7206193"
       sodipodi:end="6.1186691"
       d="m 334.35589,233.82935 a 51.784554,51.784554 0 0 1 50.65914,43.30178"
       sodipodi:open="true" />
    <text
       xml:space="preserve"
       style="font-style:normal;font-variant:normal;font-weight:bold;font-stretch:normal;font-size:62.5px;line-height:125%;font-family:'Clear Sans';-inkscape-font-specification:'Clear Sans, Bold';text-align:start;letter-spacing:0px;word-spacing:0px;writing-mode:lr-tb;text-anchor:start;fill:#939393;fill-opacity:1;stroke:none;stroke-width:1px;stroke-linecap:butt;stroke-linejoin:miter;stroke-opacity:1"
       x="335.81277"
       y="230.8147"
       id="text7132-2"
       sodipodi:linespacing="125%"><tspan
         sodipodi:role="line"
         id="tspan7134-9"
         x="335.81277"
         y="230.8147"
         style="font-size:20px;fill:#939393;fill-opacity:1">bearing</tspan></text>
  </g>
</svg>
