<?xml version="1.0" encoding="UTF-8" standalone="no"?>
<!-- Created with Inkscape (http://www.inkscape.org/) -->

<svg
   xmlns:dc="http://purl.org/dc/elements/1.1/"
   xmlns:cc="http://creativecommons.org/ns#"
   xmlns:rdf="http://www.w3.org/1999/02/22-rdf-syntax-ns#"
   xmlns:svg="http://www.w3.org/2000/svg"
   xmlns="http://www.w3.org/2000/svg"
   xmlns:sodipodi="http://sodipodi.sourceforge.net/DTD/sodipodi-0.dtd"
   xmlns:inkscape="http://www.inkscape.org/namespaces/inkscape"
   width="157.52045mm"
   height="62.896812mm"
   viewBox="0 0 558.14332 222.86272"
   id="svg2"
   version="1.1"
   inkscape:version="0.91 r13725"
   sodipodi:docname="segment_2.svg">
  <defs
     id="defs4" />
  <sodipodi:namedview
     id="base"
     pagecolor="#ffffff"
     bordercolor="#666666"
     borderopacity="1.0"
     inkscape:pageopacity="0.0"
     inkscape:pageshadow="2"
     inkscape:zoom="5.310464"
     inkscape:cx="279.07166"
     inkscape:cy="102.94567"
     inkscape:document-units="px"
     inkscape:current-layer="layer1"
     showgrid="false"
     fit-margin-top="0"
     fit-margin-left="0"
     fit-margin-right="0"
     fit-margin-bottom="0"
     inkscape:window-width="3710"
     inkscape:window-height="2112"
     inkscape:window-x="1810"
     inkscape:window-y="48"
     inkscape:window-maximized="1" />
  <metadata
     id="metadata7">
    <rdf:RDF>
      <cc:Work
         rdf:about="">
        <dc:format>image/svg+xml</dc:format>
        <dc:type
           rdf:resource="http://purl.org/dc/dcmitype/StillImage" />
        <dc:title></dc:title>
      </cc:Work>
    </rdf:RDF>
  </metadata>
  <g
     inkscape:label="Layer 1"
     inkscape:groupmode="layer"
     id="layer1"
     transform="translate(-36.321979,-164.13235)">
    <path
       style="fill:none;fill-rule:evenodd;stroke:#000000;stroke-width:20;stroke-linecap:butt;stroke-linejoin:miter;stroke-miterlimit:4;stroke-dasharray:none;stroke-opacity:1"
       d="m 47.137057,213.21297 c 40.242652,21.33086 85.090373,38.34447 103.043803,80.57148 -68.256819,21.22447 -65.199479,53.3011 -68.513168,84.40822"
       id="path4136"
       inkscape:connector-curvature="0"
       sodipodi:nodetypes="ccc" />
    <g
       id="g4233">
      <path
         id="path4217"
         transform="translate(36.321979,181.10373)"
         d="m 228.6875,51.433594 -6.46875,25.46875 c 13.47823,1.563127 27.68342,10.416906 43.88867,21.654297 13.02272,9.030479 27.03475,19.512079 43.11524,25.486329 l 6.07617,-25.960939 C 304.49805,93.355876 293.1093,85.641309 280.92383,77.191406 265.53976,66.523458 248.4801,54.615298 228.6875,51.433594 Z"
         style="color:#000000;font-style:normal;font-variant:normal;font-weight:normal;font-stretch:normal;font-size:medium;line-height:normal;font-family:sans-serif;text-indent:0;text-align:start;text-decoration:none;text-decoration-line:none;text-decoration-style:solid;text-decoration-color:#000000;letter-spacing:normal;word-spacing:normal;text-transform:none;direction:ltr;block-progression:tb;writing-mode:lr-tb;baseline-shift:baseline;text-anchor:start;white-space:normal;clip-rule:nonzero;display:inline;overflow:visible;visibility:visible;opacity:1;isolation:auto;mix-blend-mode:normal;color-interpolation:sRGB;color-interpolation-filters:linearRGB;solid-color:#000000;solid-opacity:1;fill:#000000;fill-opacity:1;fill-rule:evenodd;stroke:none;stroke-width:26;stroke-linecap:butt;stroke-linejoin:miter;stroke-miterlimit:4;stroke-dasharray:none;stroke-dashoffset:0;stroke-opacity:1;color-rendering:auto;image-rendering:auto;shape-rendering:auto;text-rendering:auto;enable-background:accumulate"
         inkscape:connector-curvature="0" />
      <path
         inkscape:connector-curvature="0"
         id="path4225"
         d="m 265.68047,234.65432 -4.70769,-8.47384"
         style="fill:none;fill-rule:evenodd;stroke:#000000;stroke-width:4;stroke-linecap:butt;stroke-linejoin:miter;stroke-miterlimit:4;stroke-dasharray:none;stroke-opacity:1" />
      <path
         inkscape:connector-curvature="0"
         id="path4227"
         d="m 260.59617,256.8746 -7.90892,3.76615"
         style="fill:none;fill-rule:evenodd;stroke:#000000;stroke-width:4;stroke-linecap:butt;stroke-linejoin:miter;stroke-miterlimit:4;stroke-dasharray:none;stroke-opacity:1" />
      <path
         inkscape:connector-curvature="0"
         id="path4229"
         d="m 350.41883,280.97796 9.22706,-2.448"
         style="fill:none;fill-rule:evenodd;stroke:#000000;stroke-width:4;stroke-linecap:butt;stroke-linejoin:miter;stroke-miterlimit:4;stroke-dasharray:none;stroke-opacity:1" />
      <path
         inkscape:connector-curvature="0"
         id="path4231"
         d="m 345.14622,302.63331 3.76615,8.47384"
         style="fill:none;fill-rule:evenodd;stroke:#000000;stroke-width:4;stroke-linecap:butt;stroke-linejoin:miter;stroke-miterlimit:4;stroke-dasharray:none;stroke-opacity:1" />
    </g>
    <path
       style="fill:none;fill-rule:evenodd;stroke:#000000;stroke-width:20;stroke-linecap:butt;stroke-linejoin:miter;stroke-miterlimit:4;stroke-dasharray:none;stroke-opacity:1"
       d="m 150.00044,293.77645 c 28.65319,1.73656 80.67886,-45.93983 97.46911,-48.49932 44.63267,-6.80376 79.9791,52.77618 125.11432,51.69011 38.46378,-0.92553 70.86,-39.91758 108.11377,-53.57729"
       id="path4138"
       inkscape:connector-curvature="0"
       sodipodi:nodetypes="cssc" />
    <path
       style="fill:none;fill-rule:evenodd;stroke:#000000;stroke-width:20;stroke-linecap:butt;stroke-linejoin:miter;stroke-miterlimit:4;stroke-dasharray:none;stroke-opacity:1"
       d="m 583.73216,191.83686 -103.0438,51.5219 c 45.66424,31.6065 73.23861,68.94882 59.19538,119.48696"
       id="path4140"
       inkscape:connector-curvature="0"
       sodipodi:nodetypes="ccc" />
    <path
       sodipodi:nodetypes="ccc"
       inkscape:connector-curvature="0"
       id="path4142"
       d="m 47.137057,213.21297 c 40.242652,21.33086 85.090373,38.34447 103.043803,80.57148 -68.256819,21.22447 -65.199479,53.3011 -68.513168,84.40822"
       style="fill:none;fill-rule:evenodd;stroke:#ffffff;stroke-width:16;stroke-linecap:square;stroke-linejoin:miter;stroke-miterlimit:4;stroke-dasharray:none;stroke-opacity:1" />
    <path
       sodipodi:nodetypes="cssc"
       inkscape:connector-curvature="0"
       id="path4144"
       d="m 150.00044,293.77645 c 28.65319,1.73656 80.67886,-45.93983 97.46911,-48.49932 44.63267,-6.80376 79.9791,52.77618 125.11432,51.69011 38.46378,-0.92553 70.86,-39.91758 108.11377,-53.57729"
       style="fill:none;fill-rule:evenodd;stroke:#ffffff;stroke-width:16;stroke-linecap:butt;stroke-linejoin:miter;stroke-miterlimit:4;stroke-dasharray:none;stroke-opacity:1" />
    <path
       sodipodi:nodetypes="ccc"
       inkscape:connector-curvature="0"
       id="path4146"
       d="m 583.73216,191.83686 -103.0438,51.5219 c 45.66424,31.6065 73.23861,68.94882 59.19538,119.48696"
       style="fill:none;fill-rule:evenodd;stroke:#ffffff;stroke-width:16;stroke-linecap:square;stroke-linejoin:miter;stroke-miterlimit:4;stroke-dasharray:none;stroke-opacity:1" />
    <path
       style="fill:none;fill-rule:evenodd;stroke:#6e6e6e;stroke-width:4;stroke-linecap:butt;stroke-linejoin:miter;stroke-miterlimit:4;stroke-dasharray:4, 4;stroke-dashoffset:0;stroke-opacity:1"
       d="m 150.00044,293.77645 c 28.65319,1.73656 80.67886,-45.93983 97.46911,-48.49932 44.63267,-6.80376 79.9791,52.77618 125.11432,51.69011 38.46378,-0.92553 70.86,-39.91758 108.11377,-53.57729"
       id="path4200"
       inkscape:connector-curvature="0"
       sodipodi:nodetypes="cssc" />
    <g
       id="g4928"
       transform="matrix(0.89193559,-0.45216248,0.45216248,0.89193559,-119.83801,108.48617)">
      <path
         style="color:#000000;font-style:normal;font-variant:normal;font-weight:normal;font-stretch:normal;font-size:medium;line-height:normal;font-family:sans-serif;text-indent:0;text-align:start;text-decoration:none;text-decoration-line:none;text-decoration-style:solid;text-decoration-color:#000000;letter-spacing:normal;word-spacing:normal;text-transform:none;direction:ltr;block-progression:tb;writing-mode:lr-tb;baseline-shift:baseline;text-anchor:start;white-space:normal;clip-rule:nonzero;display:inline;overflow:visible;visibility:visible;opacity:1;isolation:auto;mix-blend-mode:normal;color-interpolation:sRGB;color-interpolation-filters:linearRGB;solid-color:#000000;solid-opacity:1;fill:#b71d47;fill-opacity:1;fill-rule:evenodd;stroke:none;stroke-width:1px;stroke-linecap:butt;stroke-linejoin:miter;stroke-miterlimit:4;stroke-dasharray:none;stroke-dashoffset:0;stroke-opacity:1;color-rendering:auto;image-rendering:auto;shape-rendering:auto;text-rendering:auto;enable-background:accumulate"
         d="m 155.61032,307.29637 2.26153,0 c 0,0 0.0159,4.72905 2.70765,9.4268 2.69207,4.69776 7.84617,9.31891 18.77689,9.31891 5.45626,0 8.75106,-1.21257 11.90838,-2.49351 3.15731,-1.28097 6.22773,-2.67853 10.70691,-2.67853 3.11138,0 5.57863,1.06728 7.35881,2.61686 1.7802,1.54956 2.91841,3.54574 3.67942,5.49962 0.39708,1.01955 0.18248,1.0793 0.40196,2.02333 0.22229,-1.00254 0.007,-1.0746 0.42403,-2.16594 0.7598,-1.98929 1.89654,-4.02127 3.67498,-5.59981 1.77842,-1.57855 4.25067,-2.66695 7.36763,-2.66695 4.47919,0 7.54519,1.39756 10.70252,2.67851 3.15732,1.28094 6.45653,2.49351 11.91279,2.49351 10.93352,0 16.04691,-4.58713 18.70178,-9.24568 2.65317,-4.65548 2.63702,-9.33589 2.637,-9.34201 l 0,-0.004 2.26153,-0.0197 0,0.004 0.14585,11.69681 0,0.004 c 0,0 0.016,5.13712 -2.94617,10.30553 -2.96174,5.16839 -9.11531,10.41342 -20.79988,10.41342 -5.85141,0 -9.65052,-1.37361 -12.86687,-2.67851 -3.21636,-1.3049 -5.79939,-2.49351 -9.74843,-2.49351 -2.53687,0 -4.32625,0.80873 -5.75542,2.07728 -1.4292,1.26855 -2.4504,3.03374 -3.14054,4.84059 -1.3802,3.61366 -1.42668,7.28786 -1.42668,7.28786 l -2.26153,0 c 0,0 -0.0489,-3.59973 -1.42671,-7.13755 -0.68894,-1.76893 -1.70867,-3.49403 -3.13611,-4.73653 -1.42743,-1.24253 -3.21737,-2.03877 -5.75984,-2.03877 -3.94905,0 -6.53648,1.18864 -9.75286,2.49354 -3.21634,1.30488 -7.01104,2.6785 -12.86245,2.6785 -11.68456,0 -17.83811,-5.24118 -20.79988,-10.40957 -2.96177,-5.16841 -2.94618,-10.30937 -2.94618,-10.30937 l 0,-11.8394 z"
         id="path4337"
         inkscape:connector-curvature="0"
         sodipodi:nodetypes="cccsssscccssssscccccccsssssccssssssccc" />
      <text
         sodipodi:linespacing="125%"
         id="text4916"
         y="371.93048"
         x="163.0529"
         style="font-style:normal;font-variant:normal;font-weight:bold;font-stretch:normal;font-size:62.5px;line-height:125%;font-family:'Clear Sans';-inkscape-font-specification:'Clear Sans, Bold';text-align:start;letter-spacing:0px;word-spacing:0px;writing-mode:lr-tb;text-anchor:start;fill:#000000;fill-opacity:1;stroke:none;stroke-width:1px;stroke-linecap:butt;stroke-linejoin:miter;stroke-opacity:1"
         xml:space="preserve"><tspan
           style="font-size:37.5px"
           y="371.93048"
           x="163.0529"
           id="tspan4918"
           sodipodi:role="line">way 1</tspan></text>
    </g>
    <g
       id="g4938"
       transform="matrix(0.909446,-0.41582205,0.41582205,0.909446,-98.858414,178.69577)">
      <path
         sodipodi:nodetypes="cccsssscccssssscccccccsssssccssssssccc"
         inkscape:connector-curvature="0"
         id="path4912"
         d="m 354.65131,312.00406 2.71086,0 c 0,0 0.019,4.72905 3.24561,9.4268 3.22693,4.69776 9.40505,9.31891 22.50751,9.31891 6.54032,0 10.48974,-1.21257 14.27437,-2.49351 3.78461,-1.28097 7.46506,-2.67853 12.83417,-2.67853 3.72955,0 6.687,1.06728 8.82087,2.61686 2.1339,1.54956 3.49825,3.54574 4.41045,5.49962 0.47597,1.01955 0.21874,1.0793 0.48182,2.02333 0.26646,-1.00254 0.008,-1.0746 0.50828,-2.16594 0.91077,-1.98929 2.27335,-4.02127 4.40513,-5.59981 2.13177,-1.57855 5.09521,-2.66695 8.83145,-2.66695 5.36913,0 9.04428,1.39756 12.82891,2.67851 3.78463,1.28094 7.73932,2.49351 14.27965,2.49351 13.10582,0 19.23513,-4.58713 22.41748,-9.24568 3.18031,-4.65548 3.16096,-9.33589 3.16092,-9.34201 l 0,-0.004 2.71086,-0.0197 0,0.004 0.17483,11.69681 0,0.004 c 0,0 0.0192,5.13712 -3.53152,10.30553 -3.55019,5.16839 -10.92635,10.41342 -24.93244,10.41342 -7.01398,0 -11.5679,-1.37361 -15.42328,-2.67851 -3.8554,-1.3049 -6.95162,-2.49351 -11.68526,-2.49351 -3.04091,0 -5.1858,0.80873 -6.89892,2.07728 -1.71315,1.26855 -2.93725,3.03374 -3.76451,4.84059 -1.65443,3.61366 -1.71014,7.28786 -1.71014,7.28786 l -2.71085,0 c 0,0 -0.0587,-3.59973 -1.71017,-7.13755 -0.82583,-1.76893 -2.04816,-3.49403 -3.7592,-4.73653 -1.71104,-1.24253 -3.8566,-2.03877 -6.90422,-2.03877 -4.73365,0 -7.83516,1.18864 -11.69057,2.49354 -3.85537,1.30488 -8.404,2.6785 -15.41798,2.6785 -14.00607,0 -21.38222,-5.24118 -24.93244,-10.40957 -3.55022,-5.16841 -3.53154,-10.30937 -3.53154,-10.30937 l 0,-11.8394 z"
         style="color:#000000;font-style:normal;font-variant:normal;font-weight:normal;font-stretch:normal;font-size:medium;line-height:normal;font-family:sans-serif;text-indent:0;text-align:start;text-decoration:none;text-decoration-line:none;text-decoration-style:solid;text-decoration-color:#000000;letter-spacing:normal;word-spacing:normal;text-transform:none;direction:ltr;block-progression:tb;writing-mode:lr-tb;baseline-shift:baseline;text-anchor:start;white-space:normal;clip-rule:nonzero;display:inline;overflow:visible;visibility:visible;opacity:1;isolation:auto;mix-blend-mode:normal;color-interpolation:sRGB;color-interpolation-filters:linearRGB;solid-color:#000000;solid-opacity:1;fill:#b71d47;fill-opacity:1;fill-rule:evenodd;stroke:none;stroke-width:1px;stroke-linecap:butt;stroke-linejoin:miter;stroke-miterlimit:4;stroke-dasharray:none;stroke-dashoffset:0;stroke-opacity:1;color-rendering:auto;image-rendering:auto;shape-rendering:auto;text-rendering:auto;enable-background:accumulate" />
      <text
         xml:space="preserve"
         style="font-style:normal;font-variant:normal;font-weight:bold;font-stretch:normal;font-size:62.5px;line-height:125%;font-family:'Clear Sans';-inkscape-font-specification:'Clear Sans, Bold';text-align:start;letter-spacing:0px;word-spacing:0px;writing-mode:lr-tb;text-anchor:start;fill:#000000;fill-opacity:1;stroke:none;stroke-width:1px;stroke-linecap:butt;stroke-linejoin:miter;stroke-opacity:1"
         x="368.49634"
         y="374.56677"
         id="text4920"
         sodipodi:linespacing="125%"><tspan
           sodipodi:role="line"
           id="tspan4922"
           x="368.49634"
           y="374.56677"
           style="font-size:37.5px">way 3</tspan></text>
    </g>
    <g
       id="g4933"
       transform="matrix(0.87715329,0.48021048,-0.48021048,0.87715329,119.66241,-136.3337)">
      <path
         style="color:#000000;font-style:normal;font-variant:normal;font-weight:normal;font-stretch:normal;font-size:medium;line-height:normal;font-family:sans-serif;text-indent:0;text-align:start;text-decoration:none;text-decoration-line:none;text-decoration-style:solid;text-decoration-color:#000000;letter-spacing:normal;word-spacing:normal;text-transform:none;direction:ltr;block-progression:tb;writing-mode:lr-tb;baseline-shift:baseline;text-anchor:start;white-space:normal;clip-rule:nonzero;display:inline;overflow:visible;visibility:visible;opacity:1;isolation:auto;mix-blend-mode:normal;color-interpolation:sRGB;color-interpolation-filters:linearRGB;solid-color:#000000;solid-opacity:1;fill:#b71d47;fill-opacity:1;fill-rule:evenodd;stroke:none;stroke-width:1px;stroke-linecap:butt;stroke-linejoin:miter;stroke-miterlimit:4;stroke-dasharray:none;stroke-dashoffset:0;stroke-opacity:1;color-rendering:auto;image-rendering:auto;shape-rendering:auto;text-rendering:auto;enable-background:accumulate"
         d="m 408.89274,246.18571 -2.17682,0 c 0,0 -0.0153,-4.72905 -2.60624,-9.4268 -2.59123,-4.69776 -7.55227,-9.31891 -18.07356,-9.31891 -5.2519,0 -8.42328,1.21257 -11.46235,2.49351 -3.03905,1.28097 -5.99446,2.67853 -10.30586,2.67853 -2.99484,0 -5.36967,-1.06728 -7.08318,-2.61686 -1.71352,-1.54956 -2.8091,-3.54574 -3.54159,-5.49962 -0.38221,-1.01955 -0.17565,-1.0793 -0.38691,-2.02333 -0.21397,1.00254 -0.007,1.0746 -0.40814,2.16594 -0.73135,1.98929 -1.82551,4.02127 -3.53733,5.59981 -1.71181,1.57855 -4.09146,2.66695 -7.09168,2.66695 -4.31141,0 -7.26257,-1.39756 -10.30163,-2.67851 -3.03906,-1.28094 -6.21469,-2.49351 -11.46658,-2.49351 -10.524,0 -15.44585,4.58713 -18.00128,9.24568 -2.55379,4.65548 -2.53825,9.33589 -2.53823,9.34201 l 0,0.004 -2.17682,0.0197 0,-0.004 -0.14039,-11.69681 0,-0.004 c 0,0 -0.0154,-5.13712 2.83582,-10.30553 2.85081,-5.16839 8.77388,-10.41342 20.02079,-10.41342 5.63224,0 9.28904,1.37361 12.38492,2.67851 3.09589,1.3049 5.58217,2.49351 9.38329,2.49351 2.44185,0 4.1642,-0.80873 5.53984,-2.07728 1.37567,-1.26855 2.35862,-3.03374 3.02291,-4.84059 1.32851,-3.61366 1.37324,-7.28786 1.37324,-7.28786 l 2.17683,0 c 0,0 0.0471,3.59973 1.37326,7.13755 0.66314,1.76893 1.64468,3.49403 3.01865,4.73653 1.37397,1.24253 3.09685,2.03877 5.54409,2.03877 3.80114,0 6.29165,-1.18864 9.38756,-2.49354 3.09586,-1.30488 6.74843,-2.6785 12.38066,-2.6785 11.2469,0 17.16996,5.24118 20.02079,10.40957 2.85084,5.16841 2.83584,10.30937 2.83584,10.30937 l 0,11.8394 z"
         id="path4914"
         inkscape:connector-curvature="0"
         sodipodi:nodetypes="cccsssscccssssscccccccsssssccssssssccc" />
      <text
         sodipodi:linespacing="125%"
         id="text4924"
         y="196.23961"
         x="301.83551"
         style="font-style:normal;font-variant:normal;font-weight:bold;font-stretch:normal;font-size:62.5px;line-height:125%;font-family:'Clear Sans';-inkscape-font-specification:'Clear Sans, Bold';text-align:start;letter-spacing:0px;word-spacing:0px;writing-mode:lr-tb;text-anchor:start;fill:#000000;fill-opacity:1;stroke:none;stroke-width:1px;stroke-linecap:butt;stroke-linejoin:miter;stroke-opacity:1"
         xml:space="preserve"><tspan
           style="font-size:37.5px"
           y="196.23961"
           x="301.83551"
           id="tspan4926"
           sodipodi:role="line">way 2</tspan></text>
    </g>
  </g>
</svg>
