<?xml version="1.0" encoding="UTF-8" standalone="no"?>
<!-- Created with Inkscape (http://www.inkscape.org/) -->

<svg
   xmlns:dc="http://purl.org/dc/elements/1.1/"
   xmlns:cc="http://creativecommons.org/ns#"
   xmlns:rdf="http://www.w3.org/1999/02/22-rdf-syntax-ns#"
   xmlns:svg="http://www.w3.org/2000/svg"
   xmlns="http://www.w3.org/2000/svg"
   xmlns:sodipodi="http://sodipodi.sourceforge.net/DTD/sodipodi-0.dtd"
   xmlns:inkscape="http://www.inkscape.org/namespaces/inkscape"
   width="157.52045mm"
   height="58.107109mm"
   viewBox="0 0 558.14332 205.89133"
   id="svg2"
   version="1.1"
   inkscape:version="0.91 r13725"
   sodipodi:docname="segment_1.svg">
  <defs
     id="defs4" />
  <sodipodi:namedview
     id="base"
     pagecolor="#ffffff"
     bordercolor="#666666"
     borderopacity="1.0"
     inkscape:pageopacity="0.0"
     inkscape:pageshadow="2"
     inkscape:zoom="5.310464"
     inkscape:cx="279.07166"
     inkscape:cy="102.94567"
     inkscape:document-units="px"
     inkscape:current-layer="layer1"
     showgrid="false"
     fit-margin-top="0"
     fit-margin-left="0"
     fit-margin-right="0"
     fit-margin-bottom="0"
     inkscape:window-width="3710"
     inkscape:window-height="2112"
     inkscape:window-x="1810"
     inkscape:window-y="48"
     inkscape:window-maximized="1" />
  <metadata
     id="metadata7">
    <rdf:RDF>
      <cc:Work
         rdf:about="">
        <dc:format>image/svg+xml</dc:format>
        <dc:type
           rdf:resource="http://purl.org/dc/dcmitype/StillImage" />
        <dc:title></dc:title>
      </cc:Work>
    </rdf:RDF>
  </metadata>
  <g
     inkscape:label="Layer 1"
     inkscape:groupmode="layer"
     id="layer1"
     transform="translate(-36.321979,-181.10373)">
    <path
       style="fill:none;fill-rule:evenodd;stroke:#000000;stroke-width:20;stroke-linecap:butt;stroke-linejoin:miter;stroke-miterlimit:4;stroke-dasharray:none;stroke-opacity:1"
       d="m 47.137057,213.21297 c 40.242652,21.33086 85.090373,38.34447 103.043803,80.57148 -68.256819,21.22447 -65.199479,53.3011 -68.513168,84.40822"
       id="path4136"
       inkscape:connector-curvature="0"
       sodipodi:nodetypes="ccc" />
    <g
       id="g4233">
      <path
         id="path4217"
         transform="translate(36.321979,181.10373)"
         d="M 228.6875 51.433594 L 222.21875 76.902344 C 235.69698 78.465471 249.90217 87.31925 266.10742 98.556641 C 279.13014 107.58712 293.14217 118.06872 309.22266 124.04297 L 315.29883 98.082031 C 304.49805 93.355876 293.1093 85.641309 280.92383 77.191406 C 265.53976 66.523458 248.4801 54.615298 228.6875 51.433594 z "
         style="color:#000000;font-style:normal;font-variant:normal;font-weight:normal;font-stretch:normal;font-size:medium;line-height:normal;font-family:sans-serif;text-indent:0;text-align:start;text-decoration:none;text-decoration-line:none;text-decoration-style:solid;text-decoration-color:#000000;letter-spacing:normal;word-spacing:normal;text-transform:none;direction:ltr;block-progression:tb;writing-mode:lr-tb;baseline-shift:baseline;text-anchor:start;white-space:normal;clip-rule:nonzero;display:inline;overflow:visible;visibility:visible;opacity:1;isolation:auto;mix-blend-mode:normal;color-interpolation:sRGB;color-interpolation-filters:linearRGB;solid-color:#000000;solid-opacity:1;fill:#000000;fill-opacity:1;fill-rule:evenodd;stroke:none;stroke-width:26;stroke-linecap:butt;stroke-linejoin:miter;stroke-miterlimit:4;stroke-dasharray:none;stroke-dashoffset:0;stroke-opacity:1;color-rendering:auto;image-rendering:auto;shape-rendering:auto;text-rendering:auto;enable-background:accumulate" />
      <path
         inkscape:connector-curvature="0"
         id="path4225"
         d="m 265.68047,234.65432 -4.70769,-8.47384"
         style="fill:none;fill-rule:evenodd;stroke:#000000;stroke-width:4;stroke-linecap:butt;stroke-linejoin:miter;stroke-opacity:1;stroke-miterlimit:4;stroke-dasharray:none" />
      <path
         inkscape:connector-curvature="0"
         id="path4227"
         d="m 260.59617,256.8746 -7.90892,3.76615"
         style="fill:none;fill-rule:evenodd;stroke:#000000;stroke-width:4;stroke-linecap:butt;stroke-linejoin:miter;stroke-opacity:1;stroke-miterlimit:4;stroke-dasharray:none" />
      <path
         inkscape:connector-curvature="0"
         id="path4229"
         d="m 350.41883,280.97796 9.22706,-2.448"
         style="fill:none;fill-rule:evenodd;stroke:#000000;stroke-width:4;stroke-linecap:butt;stroke-linejoin:miter;stroke-opacity:1;stroke-miterlimit:4;stroke-dasharray:none" />
      <path
         inkscape:connector-curvature="0"
         id="path4231"
         d="m 345.14622,302.63331 3.76615,8.47384"
         style="fill:none;fill-rule:evenodd;stroke:#000000;stroke-width:4;stroke-linecap:butt;stroke-linejoin:miter;stroke-opacity:1;stroke-miterlimit:4;stroke-dasharray:none" />
    </g>
    <path
       style="fill:none;fill-rule:evenodd;stroke:#000000;stroke-width:20;stroke-linecap:butt;stroke-linejoin:miter;stroke-miterlimit:4;stroke-dasharray:none;stroke-opacity:1"
       d="m 150.00044,293.77645 c 28.65319,1.73656 80.67886,-45.93983 97.46911,-48.49932 44.63267,-6.80376 79.9791,52.77618 125.11432,51.69011 38.46378,-0.92553 70.86,-39.91758 108.11377,-53.57729"
       id="path4138"
       inkscape:connector-curvature="0"
       sodipodi:nodetypes="cssc" />
    <path
       style="fill:none;fill-rule:evenodd;stroke:#000000;stroke-width:20;stroke-linecap:butt;stroke-linejoin:miter;stroke-miterlimit:4;stroke-dasharray:none;stroke-opacity:1"
       d="m 583.73216,191.83686 -103.0438,51.5219 c 45.66424,31.6065 73.23861,68.94882 59.19538,119.48696"
       id="path4140"
       inkscape:connector-curvature="0"
       sodipodi:nodetypes="ccc" />
    <path
       sodipodi:nodetypes="ccc"
       inkscape:connector-curvature="0"
       id="path4142"
       d="m 47.137057,213.21297 c 40.242652,21.33086 85.090373,38.34447 103.043803,80.57148 -68.256819,21.22447 -65.199479,53.3011 -68.513168,84.40822"
       style="fill:none;fill-rule:evenodd;stroke:#ffffff;stroke-width:16;stroke-linecap:square;stroke-linejoin:miter;stroke-miterlimit:4;stroke-dasharray:none;stroke-opacity:1" />
    <path
       sodipodi:nodetypes="cssc"
       inkscape:connector-curvature="0"
       id="path4144"
       d="m 150.00044,293.77645 c 28.65319,1.73656 80.67886,-45.93983 97.46911,-48.49932 44.63267,-6.80376 79.9791,52.77618 125.11432,51.69011 38.46378,-0.92553 70.86,-39.91758 108.11377,-53.57729"
       style="fill:none;fill-rule:evenodd;stroke:#ffffff;stroke-width:16;stroke-linecap:butt;stroke-linejoin:miter;stroke-miterlimit:4;stroke-dasharray:none;stroke-opacity:1" />
    <path
       sodipodi:nodetypes="ccc"
       inkscape:connector-curvature="0"
       id="path4146"
       d="m 583.73216,191.83686 -103.0438,51.5219 c 45.66424,31.6065 73.23861,68.94882 59.19538,119.48696"
       style="fill:none;fill-rule:evenodd;stroke:#ffffff;stroke-width:16;stroke-linecap:square;stroke-linejoin:miter;stroke-miterlimit:4;stroke-dasharray:none;stroke-opacity:1" />
    <path
       style="fill:none;fill-rule:evenodd;stroke:#6e6e6e;stroke-width:4;stroke-linecap:butt;stroke-linejoin:miter;stroke-miterlimit:4;stroke-dasharray:4, 4;stroke-opacity:1;stroke-dashoffset:0"
       d="m 150.00044,293.77645 c 28.65319,1.73656 80.67886,-45.93983 97.46911,-48.49932 44.63267,-6.80376 79.9791,52.77618 125.11432,51.69011 38.46378,-0.92553 70.86,-39.91758 108.11377,-53.57729"
       id="path4200"
       inkscape:connector-curvature="0"
       sodipodi:nodetypes="cssc" />
    <path
       inkscape:connector-curvature="0"
       id="path4209"
       d="m 149.87188,249.53119 a 14.499675,14.499675 0 0 0 -14.5,14.5 14.499675,14.499675 0 0 0 2.67968,8.36719 l 12.1543,20.56641 12.28125,-21.7793 -0.0156,0 a 14.499675,14.499675 0 0 0 1.9004,-7.1543 14.499675,14.499675 0 0 0 -14.5,-14.5 z"
       style="opacity:1;fill:#19c31e;fill-opacity:1;stroke:#129015;stroke-width:4;stroke-linecap:square;stroke-linejoin:round;stroke-miterlimit:4;stroke-dasharray:none;stroke-dashoffset:0;stroke-opacity:1" />
    <path
       style="opacity:1;fill:#c31919;fill-opacity:1;stroke:#901212;stroke-width:4;stroke-linecap:square;stroke-linejoin:round;stroke-miterlimit:4;stroke-dasharray:none;stroke-dashoffset:0;stroke-opacity:1"
       d="m 482.04624,198.87649 a 14.499675,14.499675 0 0 0 -14.5,14.5 14.499675,14.499675 0 0 0 2.67968,8.36719 l 12.1543,20.56641 12.28125,-21.7793 -0.0156,0 a 14.499675,14.499675 0 0 0 1.9004,-7.1543 14.499675,14.499675 0 0 0 -14.5,-14.5 z"
       id="path4211"
       inkscape:connector-curvature="0" />
    <rect
       style="opacity:1;fill:#901212;fill-opacity:1;stroke:none;stroke-width:4;stroke-linecap:square;stroke-linejoin:round;stroke-miterlimit:4;stroke-dasharray:none;stroke-dashoffset:0;stroke-opacity:1"
       id="rect4213"
       width="15.252895"
       height="15.629526"
       x="474.51346"
       y="206.21989" />
    <path
       sodipodi:type="star"
       style="opacity:1;fill:#129015;fill-opacity:1;stroke:none;stroke-width:4;stroke-linecap:square;stroke-linejoin:round;stroke-miterlimit:4;stroke-dasharray:none;stroke-dashoffset:0;stroke-opacity:1"
       id="path4215"
       sodipodi:sides="3"
       sodipodi:cx="149.30646"
       sodipodi:cy="264.4069"
       sodipodi:r1="10.923456"
       sodipodi:r2="5.4617281"
       sodipodi:arg1="0"
       sodipodi:arg2="1.0471976"
       inkscape:flatsided="true"
       inkscape:rounded="0"
       inkscape:randomized="0"
       d="m 160.22991,264.40689 -16.38518,9.45999 0,-18.91998 z"
       inkscape:transform-center-x="-2.730864" />
  </g>
</svg>
